<svg width="165" height="303" viewBox="0 0 165 303" fill="none" xmlns="http://www.w3.org/2000/svg">
<path d="M140.809 253.289L160.704 252.245C146.115 144.868 115.705 95.4568 68.5371 3.74222C-47.8359 -10.8637 24.468 218.652 39.7703 258.595L74.8454 256.753L140.809 253.289Z" fill="#D4FBCA"/>
<path d="M140.809 253.289L74.8454 256.753C93.2626 323.11 159.697 304.277 140.809 253.289Z" fill="#FFE4D6"/>
<path d="M160.704 252.245L160.861 255.24L164.115 255.07L163.677 251.841L160.704 252.245ZM39.7703 258.595L36.9688 259.668L37.7492 261.705L39.9276 261.591L39.7703 258.595ZM68.5371 3.74222L71.2049 2.37017L70.4811 0.962675L68.9107 0.765574L68.5371 3.74222ZM160.547 249.249L39.613 255.599L39.9276 261.591L160.861 255.24L160.547 249.249ZM137.996 254.331C142.499 266.486 141.79 276.348 138.365 283.355C134.943 290.358 128.669 294.83 121.319 296.067C106.806 298.511 86.6929 288.222 77.7361 255.951L71.9546 257.555C81.4151 291.641 103.728 305.114 122.315 301.984C131.515 300.435 139.458 294.785 143.756 285.99C148.051 277.2 148.564 265.587 143.622 252.247L137.996 254.331ZM140.652 250.293L74.688 253.757L75.0027 259.749L140.967 256.285L140.652 250.293ZM42.5717 257.521C34.9704 237.68 13.1709 170.605 7.76342 110.444C5.05289 80.2884 6.51657 52.3883 15.5155 33.0498C19.9796 23.4565 26.2446 16.0835 34.6928 11.4978C43.1472 6.90862 54.082 4.9515 68.1635 6.71887L68.9107 0.765574C53.899 -1.11854 41.6366 0.901666 31.8304 6.22453C22.0181 11.5508 14.9589 20.0244 10.0756 30.5184C0.379809 51.3545 -0.94409 80.5911 1.78751 110.981C7.26427 171.913 29.2679 239.567 36.9688 259.668L42.5717 257.521ZM65.8692 5.11427C113.079 96.9097 143.223 145.867 157.731 252.648L163.677 251.841C149.006 143.869 118.331 94.0038 71.2049 2.37017L65.8692 5.11427ZM140.967 256.285L160.861 255.24L160.547 249.249L140.652 250.293L140.967 256.285ZM39.9276 261.591L75.0027 259.749L74.688 253.757L39.613 255.599L39.9276 261.591Z" fill="black"/>
</svg>
