<svg width="698" height="1070" viewBox="0 0 698 1070" fill="none" xmlns="http://www.w3.org/2000/svg">
<path d="M204.499 796.5C191.999 891.5 151 942.5 151 1047.5C171.409 1052.13 209.305 1055.39 227.5 1058.04C257.529 1062.41 291.528 1064.46 317.5 1065.42C342.101 1066.33 366 1066.5 366 1066.5C394.453 1066.5 450.705 1063.69 515.5 1052.88C532.685 1050.02 550.472 1046.59 568.5 1042.5C568.5 937.5 532 884.498 519.5 789.498L559.5 643C447 554.999 235.999 573.497 165.999 651.499L204.499 796.5Z" fill="#D0FFC4"/>
<path d="M366 1066.5C402 1066.5 482.5 1062 568.5 1042.5M366 1066.5C366 1066.5 342.101 1066.33 317.5 1065.42C291.528 1064.46 257.529 1062.41 227.5 1058.04C209.305 1055.39 171.409 1052.13 151 1047.5C151 942.5 191.999 891.5 204.499 796.5L165.999 651.499C235.999 573.497 447 554.999 559.5 643L519.5 789.498C532 884.498 568.5 937.5 568.5 1042.5M366 1066.5C394.453 1066.5 450.705 1063.69 515.5 1052.88M568.5 1042.5C550.472 1046.59 532.685 1050.02 515.5 1052.88M515.5 1052.88C515.5 1052.88 452.5 1065.4 422.5 1065.4" stroke="black" stroke-width="6"/>
<ellipse cx="349" cy="321" rx="349" ry="321" fill="#3A4E32"/>
<path d="M288.234 577C289.734 583.326 291.834 623.2 288.234 632C344.5 643.5 378 646.5 437 635.5C430 631 428 590.277 428 571.277C382.972 577.562 333.549 582.128 288.234 577Z" fill="#F3C1A7" stroke="black" stroke-width="5"/>
</svg>
