<svg width="177" height="124" viewBox="0 0 177 124" fill="none" xmlns="http://www.w3.org/2000/svg">
<path d="M83.8977 16.2647C84.3842 16.6161 85.0615 16.4454 85.3871 15.9412C102.538 -10.6158 137.139 10.6779 134.854 25.6526C134.744 26.3748 135.345 27.0819 136.073 27.0242C176.493 23.8208 181.506 70.1235 166.936 80.2073C166.47 80.5299 166.307 81.1555 166.569 81.658C172.446 92.9088 166.936 115.336 148.917 103.951C148.05 103.403 146.026 104.471 145.747 105.458C142.978 115.254 123.945 133.09 108.7 110.703C108.255 110.049 107.232 110.082 106.85 110.775C98.659 125.643 83.1673 122.513 81.6297 108.5C81.5468 107.744 80.6991 107.284 80.0282 107.641C51.2165 122.986 19.4798 96.3863 25.256 75.1157C25.4414 74.4332 24.9045 73.7322 24.1973 73.7259C-4.88849 73.4685 -1.98218 31.8637 21.8234 31.5116C22.2663 31.5051 22.6845 31.1986 22.8238 30.7781C37.8796 -14.6663 77.4954 11.6398 83.8977 16.2647Z" fill="#FFEAF4"/>
<path d="M108.7 110.703L106.634 112.111L108.7 110.703ZM106.85 110.775L109.04 111.982L106.85 110.775ZM21.8234 31.5116L21.8604 34.0114L21.8234 31.5116ZM22.8238 30.7781L25.1969 31.5644L22.8238 30.7781ZM25.256 75.1157L22.8434 74.4605L25.256 75.1157ZM24.1973 73.7259L24.2194 71.226L24.1973 73.7259ZM80.0282 107.641L78.853 105.435L80.0282 107.641ZM81.6297 108.5L79.1446 108.773L81.6297 108.5ZM148.917 103.951L147.581 106.065L148.917 103.951ZM145.747 105.458L148.153 106.138L145.747 105.458ZM166.936 80.2073L165.514 78.1516L166.936 80.2073ZM166.569 81.658L168.785 80.5005L166.569 81.658ZM134.854 25.6526L137.325 26.0298L134.854 25.6526ZM136.073 27.0242L135.876 24.532L136.073 27.0242ZM85.3871 15.9412L83.287 14.585L85.3871 15.9412ZM83.8977 16.2647L85.3616 14.2381L83.8977 16.2647ZM87.4873 17.2975C91.4626 11.1419 96.3403 7.89687 101.32 6.56406C106.345 5.21895 111.672 5.77125 116.544 7.56808C121.425 9.3681 125.711 12.369 128.61 15.719C131.555 19.1224 132.799 22.5462 132.383 25.2754L137.325 26.0298C138.052 21.2716 135.827 16.4182 132.391 12.4473C128.909 8.423 123.902 4.95256 118.274 2.87696C112.638 0.798156 106.241 0.0705702 100.027 1.7341C93.766 3.40993 87.887 7.46208 83.287 14.585L87.4873 17.2975ZM136.271 29.5164C145.874 28.7553 153.184 30.9392 158.586 34.629C164.011 38.3339 167.68 43.6736 169.774 49.4811C171.873 55.3027 172.355 61.5031 171.478 66.7836C170.591 72.1283 168.39 76.1611 165.514 78.1516L168.359 82.2629C172.768 79.2115 175.403 73.6751 176.411 67.6021C177.429 61.4648 176.863 54.3991 174.478 47.7849C172.087 41.1567 167.835 34.8912 161.407 30.5002C154.956 26.0941 146.482 23.6914 135.876 24.532L136.271 29.5164ZM164.353 82.8155C165.605 85.2114 166.299 88.3171 166.324 91.5089C166.35 94.7027 165.706 97.7846 164.484 100.143C163.273 102.482 161.597 103.946 159.545 104.416C157.461 104.893 154.425 104.474 150.252 101.838L147.581 106.065C152.418 109.12 156.828 110.167 160.661 109.29C164.527 108.405 167.24 105.694 168.924 102.443C170.598 99.2112 171.355 95.2883 171.324 91.4685C171.293 87.6467 170.472 83.73 168.785 80.5005L164.353 82.8155ZM78.853 105.435C65.4045 112.598 51.2639 110.004 41.0823 103.045C30.7513 95.9845 25.1673 84.9819 27.6687 75.7709L22.8434 74.4605C19.5685 86.5201 26.9648 99.4528 38.261 107.173C49.7067 114.996 65.8402 118.03 81.2034 109.848L78.853 105.435ZM24.2194 71.226C17.5938 71.1674 13.0237 68.7814 10.0905 65.4256C7.11328 62.0195 5.64595 57.408 5.67604 52.6702C5.73726 43.0323 11.7846 34.1604 21.8604 34.0114L21.7865 29.0119C8.05668 29.215 0.748028 41.3215 0.676145 52.6384C0.639685 58.378 2.41151 64.2379 6.32586 68.7161C10.2841 73.2446 16.2579 76.1557 24.1752 76.2258L24.2194 71.226ZM25.1969 31.5644C28.8371 20.577 33.8525 14.2446 39.1796 10.7848C44.4999 7.32938 50.4378 6.5401 56.315 7.22843C68.2244 8.62325 79.2856 16.0171 82.4337 18.2912L85.3616 14.2381C82.1074 11.8874 70.1596 3.81572 56.8966 2.26237C50.1876 1.47661 42.9984 2.34258 36.4562 6.59153C29.9209 10.8361 24.3384 18.2571 20.4506 29.9919L25.1969 31.5644ZM143.341 104.778C142.779 106.767 141.304 109.393 139.07 111.893C136.853 114.375 134.035 116.568 130.951 117.838C127.896 119.095 124.625 119.435 121.321 118.334C118.001 117.228 114.358 114.57 110.767 109.296L106.634 112.111C110.665 118.03 115.118 121.538 119.741 123.078C124.38 124.623 128.899 124.089 132.854 122.461C136.779 120.846 140.192 118.142 142.799 115.224C145.389 112.325 147.331 109.047 148.153 106.138L143.341 104.778ZM104.66 109.569C100.912 116.373 95.8644 118.493 92.0739 117.99C88.3286 117.492 84.7819 114.307 84.1148 108.227L79.1446 108.773C80.0151 116.706 84.9831 122.092 91.4158 122.946C97.8033 123.794 104.597 120.046 109.04 111.982L104.66 109.569ZM110.767 109.296C109.31 107.158 105.975 107.183 104.66 109.569L109.04 111.982C108.755 112.498 108.249 112.718 107.842 112.733C107.441 112.747 106.948 112.572 106.634 112.111L110.767 109.296ZM21.8604 34.0114C23.3665 33.9891 24.7227 32.9957 25.1969 31.5644L20.4506 29.9919C20.5579 29.6681 20.754 29.4344 20.9592 29.2839C21.1645 29.1334 21.446 29.0169 21.7865 29.0119L21.8604 34.0114ZM27.6687 75.7709C28.2883 73.4891 26.5457 71.2466 24.2194 71.226L24.1752 76.2258C23.6832 76.2214 23.296 75.9748 23.074 75.6839C22.8512 75.3919 22.7117 74.9456 22.8434 74.4605L27.6687 75.7709ZM81.2034 109.848C80.7206 110.105 80.2108 110.041 79.8643 109.855C79.5208 109.67 79.2017 109.293 79.1446 108.773L84.1148 108.227C83.8441 105.76 81.1255 104.225 78.853 105.435L81.2034 109.848ZM150.252 101.838C149.362 101.275 148.415 101.259 147.793 101.335C147.134 101.415 146.517 101.634 146.001 101.889C145.48 102.148 144.961 102.495 144.516 102.917C144.103 103.31 143.581 103.932 143.341 104.778L148.153 106.138C148.098 106.332 148.024 106.452 147.992 106.498C147.959 106.547 147.942 106.559 147.96 106.542C148 106.504 148.094 106.432 148.222 106.369C148.281 106.34 148.332 106.32 148.37 106.308C148.41 106.295 148.419 106.296 148.398 106.298C148.379 106.301 148.296 106.309 148.164 106.289C148.03 106.269 147.816 106.213 147.581 106.065L150.252 101.838ZM165.514 78.1516C164.041 79.1708 163.49 81.1627 164.353 82.8155L168.785 80.5005C169.123 81.1484 168.899 81.8889 168.359 82.2629L165.514 78.1516ZM132.383 25.2754C132.054 27.4296 133.777 29.714 136.271 29.5164L135.876 24.532C136.408 24.4898 136.813 24.7368 137.03 24.9839C137.24 25.224 137.392 25.5932 137.325 26.0298L132.383 25.2754ZM83.287 14.585C83.6358 14.0449 84.5397 13.6444 85.3616 14.2381L82.4337 18.2912C84.2286 19.5878 86.4873 18.8459 87.4873 17.2975L83.287 14.585Z" fill="#FF9A9A"/>
</svg>
