<svg width="643" height="446" viewBox="0 0 643 446" fill="none" xmlns="http://www.w3.org/2000/svg">
<path d="M92.9593 131.996C93.6394 132.16 94.2799 131.563 94.2142 130.867C83.8667 21.112 187.111 21.447 227.046 45.3544C227.511 45.633 228.103 45.4802 228.405 45.0298C269.367 -16.0249 365.273 -5.61082 383.894 44.5387C384.132 45.1781 384.948 45.4055 385.494 44.9976C509.838 -47.8125 633.232 75.9639 604.907 131.324C604.629 131.868 604.885 132.546 605.453 132.772C651.971 151.311 654.853 223.559 596.986 232.126C596.253 232.235 595.832 233.066 596.222 233.696C622.761 276.546 600.333 365.519 483.582 323.475C482.848 323.211 482.058 323.862 482.193 324.63C493.062 386.235 431.123 409.04 394.339 367.965C393.869 367.441 392.996 367.536 392.659 368.154C336.262 471.647 167.669 458.193 142.277 384.6C142.061 383.975 141.285 383.726 140.728 384.083C45.6095 445.068 -41.5125 320.826 36.7569 273.999C37.3047 273.672 37.4285 272.877 37.0012 272.403C-43.3936 183.135 36.7122 118.476 92.9593 131.996Z" fill="#FFEAF4"/>
<path d="M483.582 323.475L484.429 321.123L483.582 323.475ZM482.193 324.63L479.731 325.064L482.193 324.63ZM36.7569 273.999L38.0404 276.145L36.7569 273.999ZM37.0012 272.403L35.1436 274.076L37.0012 272.403ZM142.277 384.6L144.64 383.785L142.277 384.6ZM140.728 384.083L139.379 381.978L140.728 384.083ZM392.659 368.154L394.854 369.351L392.659 368.154ZM394.339 367.965L396.201 366.297L394.339 367.965ZM596.986 232.126L596.619 229.653L596.986 232.126ZM596.222 233.696L598.347 232.38L596.222 233.696ZM604.907 131.324L602.682 130.185L604.907 131.324ZM605.453 132.772L606.378 130.45L605.453 132.772ZM383.894 44.5387L386.238 43.6685L383.894 44.5387ZM385.494 44.9976L386.99 47.001L385.494 44.9976ZM227.046 45.3544L228.33 43.2094L227.046 45.3544ZM228.405 45.0298L226.329 43.637L228.405 45.0298ZM94.2142 130.867L91.7252 131.101L94.2142 130.867ZM92.9593 131.996L92.375 134.427L92.9593 131.996ZM96.7032 130.632C94.1524 103.576 98.625 83.5766 107.142 69.109C115.651 54.6568 128.329 45.4963 142.623 40.3389C171.379 29.9635 206.394 35.9045 225.762 47.4994L228.33 43.2094C207.763 30.897 171.189 24.7167 140.926 35.6357C125.71 41.1255 112.021 50.966 102.834 66.5724C93.6549 82.1634 89.1023 103.28 91.7252 131.101L96.7032 130.632ZM230.481 46.4226C250.388 16.751 283.697 4.36766 314.429 5.58072C345.291 6.79892 372.724 21.6384 381.551 45.409L386.238 43.6685C376.443 17.2895 346.612 1.84718 314.626 0.584607C282.509 -0.683103 247.384 12.2539 226.329 43.637L230.481 46.4226ZM386.99 47.001C448.262 1.2677 509.078 8.94589 551.145 34.7284C572.229 47.6505 588.553 65.0958 597.851 82.6016C607.186 100.177 609.238 117.37 602.682 130.185L607.133 132.463C614.738 117.597 611.988 98.559 602.267 80.2563C592.509 61.8843 575.525 43.8062 553.758 30.4654C510.123 3.72231 447.071 -4.08265 383.999 42.9941L386.99 47.001ZM604.527 135.095C626.719 143.939 638.532 165.611 637.865 186.107C637.532 196.328 634.096 206.174 627.371 213.961C620.661 221.73 610.556 227.59 596.619 229.653L597.352 234.599C612.349 232.379 623.583 225.996 631.155 217.229C638.711 208.48 642.497 197.499 642.862 186.27C643.592 163.866 630.705 140.144 606.378 130.45L604.527 135.095ZM390.464 366.958C362.827 417.673 307.587 439.915 255.823 440.285C229.966 440.469 205.144 435.185 185.287 425.389C165.416 415.587 150.709 401.374 144.64 383.785L139.914 385.416C146.541 404.623 162.43 419.69 183.075 429.873C203.732 440.064 229.344 445.474 255.859 445.284C308.838 444.906 366.094 422.128 394.854 369.351L390.464 366.958ZM139.379 381.978C92.9883 411.721 48.8197 396.29 25.6594 367.89C14.0475 353.651 7.80481 336.255 9.09879 319.726C10.3853 303.292 19.1342 287.456 38.0404 276.145L35.4734 271.854C15.2449 283.956 5.53301 301.21 4.11404 319.336C2.70258 337.366 9.50984 355.999 21.7845 371.05C46.3976 401.232 93.3494 417.429 142.078 386.187L139.379 381.978ZM38.8589 270.73C18.99 248.668 9.20937 228.317 6.38756 210.512C3.57124 192.742 7.65658 177.344 15.8227 165.036C32.2483 140.281 65.2696 127.912 92.375 134.427L93.5435 129.566C64.4019 122.561 29.2467 135.761 11.6564 162.272C2.81455 175.598 -1.56796 192.257 1.4492 211.295C4.46087 230.297 14.8151 251.504 35.1436 274.076L38.8589 270.73ZM594.097 235.012C606.892 255.672 607.826 287.494 591.641 308.913C575.691 330.022 542.277 341.955 484.429 321.123L482.735 325.827C541.639 347.039 577.813 335.507 595.63 311.928C613.213 288.659 612.091 254.57 598.347 232.38L594.097 235.012ZM479.731 325.064C484.999 354.925 472.63 374.787 455.126 382.515C437.504 390.296 413.956 386.123 396.201 366.297L392.476 369.633C411.506 390.882 437.319 395.844 457.146 387.089C477.09 378.283 490.256 355.94 484.655 324.196L479.731 325.064ZM484.429 321.123C481.938 320.226 479.253 322.353 479.731 325.064L484.655 324.196C484.764 324.812 484.482 325.321 484.157 325.59C483.835 325.857 483.301 326.031 482.735 325.827L484.429 321.123ZM38.0404 276.145C39.9235 275.018 40.3517 272.387 38.8589 270.73L35.1436 274.076C34.7974 273.691 34.7194 273.229 34.7738 272.876C34.8281 272.523 35.0387 272.114 35.4734 271.854L38.0404 276.145ZM144.64 383.785C143.869 381.55 141.227 380.793 139.379 381.978L142.078 386.187C141.343 386.658 140.254 386.401 139.914 385.416L144.64 383.785ZM394.854 369.351C394.352 370.272 393.141 370.375 392.476 369.633L396.201 366.297C394.597 364.506 391.64 364.8 390.464 366.958L394.854 369.351ZM596.619 229.653C594.251 230.004 592.685 232.733 594.097 235.012L598.347 232.38C598.979 233.399 598.254 234.466 597.352 234.599L596.619 229.653ZM602.682 130.185C601.73 132.045 602.597 134.325 604.527 135.095L606.378 130.45C607.174 130.767 607.528 131.69 607.133 132.463L602.682 130.185ZM381.551 45.409C382.389 47.6662 385.152 48.3726 386.99 47.001L383.999 42.9941C384.744 42.4384 385.875 42.69 386.238 43.6685L381.551 45.409ZM225.762 47.4994C227.446 48.5078 229.489 47.9017 230.481 46.4226L226.329 43.637C226.717 43.0588 227.576 42.7582 228.33 43.2094L225.762 47.4994ZM91.7252 131.101C91.6786 130.607 91.8856 130.177 92.183 129.906C92.4882 129.628 92.9894 129.432 93.5435 129.566L92.375 134.427C94.8568 135.024 96.9166 132.896 96.7032 130.632L91.7252 131.101Z" fill="#FF9A9A"/>
</svg>
