<svg width="947" height="812" viewBox="0 0 947 812" fill="none" xmlns="http://www.w3.org/2000/svg">
<ellipse cx="516.5" cy="565.5" rx="309.5" ry="216.5" fill="#3A4E32"/>
<path d="M282.577 64.8915C291.58 72.2086 302.29 81.4295 315 93.0004L234 154C232.637 139.2 231.046 118.483 230.35 98.7031C263.891 94.4039 270.15 90.9683 282.577 64.8915Z" fill="#F2FFA4"/>
<path d="M230.043 73.985C248.219 73.7015 259.173 69.4237 266.883 52.754C271.427 56.0548 276.63 60.0577 282.577 64.8915C270.15 90.9683 263.891 94.4039 230.35 98.7031C230.048 90.0982 229.914 81.6707 230.043 73.985Z" fill="#FFE3B8"/>
<path d="M266.883 52.754C259.173 69.4237 248.219 73.7015 230.043 73.985C230.378 53.9796 232.487 39.0004 238 39.0004C239.696 37.3041 246.922 38.2513 266.883 52.754Z" fill="#F2FFA4"/>
<path d="M315 93.0004L317.693 90.0424L321.262 93.2918L317.406 96.1956L315 93.0004ZM238 39.0004L240.828 41.8288L239.657 43.0004H238V39.0004ZM234 154L236.406 157.196L230.675 161.512L230.017 154.367L234 154ZM231.594 150.805L312.594 89.8051L317.406 96.1956L236.406 157.196L231.594 150.805ZM285.1 61.7874C294.172 69.161 304.939 78.4323 317.693 90.0424L312.307 95.9583C299.64 84.4266 288.988 75.2562 280.054 67.9956L285.1 61.7874ZM230.017 154.367C228.65 139.522 227.052 118.725 226.353 98.8437L234.348 98.5625C235.04 118.241 236.624 138.877 237.983 153.634L230.017 154.367ZM229.842 94.7356C246.764 92.5666 255.798 90.6881 262.233 86.59C268.495 82.6022 272.762 76.1896 278.966 63.1707L286.188 66.6123C279.965 79.6701 274.89 88.0138 266.53 93.3378C258.344 98.5515 247.478 100.541 230.859 102.671L229.842 94.7356ZM227.504 95.0314C228.298 94.9321 229.077 94.8336 229.842 94.7356L230.859 102.671C230.085 102.77 229.298 102.869 228.496 102.97L227.504 95.0314ZM278.966 63.1707C279.104 62.8805 279.244 62.5873 279.384 62.291L286.616 65.71C286.473 66.0135 286.33 66.3142 286.188 66.6123L278.966 63.1707ZM229.981 69.9855C238.842 69.8473 245.366 68.728 250.504 65.9855C255.523 63.307 259.663 58.8372 263.253 51.0747L270.514 54.4332C266.394 63.3404 261.201 69.3444 254.271 73.0432C247.461 76.6778 239.42 77.8392 230.105 77.9845L229.981 69.9855ZM269.235 49.5179C273.846 52.868 279.106 56.9161 285.1 61.7874L280.054 67.9956C274.153 63.1993 269.008 59.2415 264.532 55.9901L269.235 49.5179ZM226.353 98.8437C226.049 90.1931 225.914 81.693 226.044 73.9181L234.042 74.0519C233.915 81.6484 234.047 90.0033 234.348 98.5625L226.353 98.8437ZM264.532 55.9901C254.656 48.8143 248.161 45.1671 244.084 43.5073C242.034 42.6729 240.799 42.4258 240.172 42.3865C239.464 42.3422 240.084 42.5733 240.828 41.8288L235.172 36.1719C236.764 34.5794 238.923 34.2927 240.671 34.4021C242.5 34.5166 244.636 35.0946 247.101 36.0978C252.051 38.1133 259.15 42.191 269.235 49.5179L264.532 55.9901ZM238 43.0004C238.755 43.0004 238.649 42.4123 237.953 43.6337C237.289 44.7993 236.6 46.8059 236.001 49.7806C234.817 55.6583 234.209 64.1089 234.042 74.0519L226.044 73.9181C226.212 63.8557 226.826 54.814 228.158 48.2007C228.817 44.9299 229.71 41.9414 231.002 39.6732C232.263 37.4608 234.489 35.0004 238 35.0004V43.0004ZM228 70.0005C228.672 70.0005 229.332 69.9956 229.981 69.9855L230.105 77.9845C229.412 77.9953 228.71 78.0005 228 78.0005V70.0005ZM263.253 51.0747C263.289 50.996 263.326 50.9169 263.362 50.8374L270.638 54.1635C270.597 54.2537 270.555 54.3436 270.514 54.4332L263.253 51.0747Z" fill="black"/>
<path d="M652.538 40.0643C645.404 49.2126 637.033 60.5985 627.238 74.7231L719.846 116.024C717.858 101.294 714.767 80.7472 711.013 61.3147C677.362 64.6398 670.492 62.6939 652.538 40.0643Z" fill="#F2FFA4"/>
<path d="M705.774 37.1561C687.997 40.9522 676.363 39.2375 665.114 24.7191C661.426 28.9539 657.252 34.0208 652.538 40.0643C670.492 62.6939 677.362 64.6398 711.013 61.3147C709.38 52.8607 707.622 44.6176 705.774 37.1561Z" fill="#FFE3B8"/>
<path d="M665.114 24.7191C676.363 39.2375 687.997 40.9522 705.774 37.1561C700.966 17.7343 695.554 3.60842 690.181 4.8437C688.148 3.57064 681.318 6.11271 665.114 24.7191Z" fill="#F2FFA4"/>
<path d="M627.238 74.7231L623.951 72.4437L621.2 76.4102L625.609 78.3762L627.238 74.7231ZM690.181 4.8437L688.058 8.23394L689.463 9.11323L691.077 8.742L690.181 4.8437ZM719.846 116.024L718.217 119.677L724.769 122.599L723.81 115.489L719.846 116.024ZM721.475 112.371L628.867 71.0699L625.609 78.3762L718.217 119.677L721.475 112.371ZM649.384 37.6044C642.194 46.8232 633.779 58.2712 623.951 72.4437L630.525 77.0025C640.286 62.9258 648.613 51.6019 655.693 42.5243L649.384 37.6044ZM723.81 115.489C721.816 100.715 718.713 80.088 714.94 60.556L707.086 62.0733C710.82 81.4063 713.9 101.873 715.882 116.559L723.81 115.489ZM710.62 57.3341C693.642 59.0116 684.417 59.2051 677.227 56.6529C670.231 54.1695 664.635 48.8761 655.672 37.5783L649.405 42.5504C658.395 53.8821 665.211 60.8764 674.551 64.192C683.698 67.4389 694.733 66.9428 711.406 65.2953L710.62 57.3341ZM712.965 57.0985C712.168 57.1797 711.387 57.2583 710.62 57.3341L711.406 65.2953C712.183 65.2186 712.972 65.1392 713.776 65.0572L712.965 57.0985ZM655.672 37.5783C655.472 37.3264 655.271 37.0718 655.068 36.8144L648.785 41.767C648.993 42.0306 649.2 42.2918 649.405 42.5504L655.672 37.5783ZM704.939 33.2443C696.272 35.0951 689.663 35.4659 684.041 33.9444C678.55 32.4585 673.514 29.0298 668.276 22.2692L661.952 27.1691C667.963 34.9268 674.368 39.6146 681.951 41.6666C689.403 43.6831 697.5 43.0132 706.61 41.0679L704.939 33.2443ZM662.097 22.0921C658.354 26.3902 654.134 31.5141 649.384 37.6044L655.693 42.5243C660.369 36.5276 664.497 31.5176 668.13 27.3462L662.097 22.0921ZM714.94 60.556C713.299 52.0571 711.526 43.7429 709.657 36.1948L701.892 38.1174C703.717 45.4923 705.461 53.6642 707.086 62.0733L714.94 60.556ZM668.13 27.3462C676.148 18.1399 681.66 13.1303 685.262 10.5992C687.072 9.32683 688.221 8.8091 688.823 8.63033C689.503 8.42875 688.951 8.79268 688.058 8.23394L692.304 1.45345C690.395 0.25819 688.227 0.462483 686.547 0.960947C684.791 1.48222 682.838 2.5242 680.662 4.054C676.289 7.12735 670.284 12.6919 662.097 22.0921L668.13 27.3462ZM691.077 8.742C690.342 8.91112 690.313 8.31434 691.265 9.34876C692.173 10.3359 693.294 12.1371 694.545 14.902C697.016 20.3649 699.502 28.4645 701.892 38.1174L709.657 36.1948C707.238 26.4259 704.614 17.7517 701.834 11.605C700.459 8.56508 698.919 5.85256 697.152 3.93161C695.427 2.05792 692.707 0.158633 689.285 0.94539L691.077 8.742ZM706.873 32.8151C706.218 32.9656 705.574 33.1088 704.939 33.2443L706.61 41.0679C707.288 40.9231 707.973 40.7709 708.665 40.6118L706.873 32.8151ZM668.276 22.2692C668.222 22.2005 668.169 22.1316 668.116 22.0624L661.77 26.9341C661.831 27.0127 661.891 27.0911 661.952 27.1691L668.276 22.2692Z" fill="black"/>
<path d="M544.722 207.886C399.721 197.281 141.725 407.209 222.225 583.88C247.225 622.38 295.392 639.876 296.725 638.209C296.725 638.209 274.225 604.709 274.225 572.709C288.225 591.709 312.725 585.709 312.725 585.709C312.725 585.709 291.708 557.868 286.377 504C327.991 463.805 399.231 416.455 378.265 311.791C376.623 305.838 375.106 299.647 373.725 293.209C375.557 299.598 377.063 305.789 378.265 311.791C397.342 380.941 433.359 418.044 469.725 437.671C484.363 445.571 499.057 450.639 512.725 453.827C550.049 462.531 579.725 457.209 579.725 457.209C567.046 451.232 553.316 444.86 540.225 435.766C569.273 410.832 588.743 392.442 602.147 364.709C609.739 349.002 615.386 330.297 619.725 305.709C617 331.5 612.64 343 602.147 364.709C656.725 437.671 684.85 454.209 721.35 481.709L713.225 437.671C717.346 453.687 721.232 467.814 721.35 481.709C721.477 496.476 717.348 510.98 704.725 527.209C716.725 524.709 723.725 517.709 729.225 508.209C749.225 545.209 742.225 564.709 729.225 596.709C747.225 584.709 757.225 573.709 769.225 556.709C769.225 561.709 750.225 573.209 771.225 586.709V587.709C928.119 461.531 713.225 200.5 544.722 207.886Z" fill="url(#paint0_linear_133_678)"/>
<path d="M469.725 437.671C462.225 457.209 455.225 461.709 440.225 467.709C469.725 475.209 489.725 475.209 512.725 453.827C499.057 450.639 484.363 445.571 469.725 437.671Z" fill="url(#paint1_linear_133_678)"/>
<path d="M222.225 583.88C225.445 654.714 333.155 714.877 442.234 727.222C487.55 732.351 536.972 727.785 582 721.5C679.83 707.247 764.036 667.958 771.225 587.709V586.709C750.225 573.209 769.225 561.709 769.225 556.709C757.225 573.709 747.225 584.709 729.225 596.709C742.225 564.709 749.225 545.209 729.225 508.209C723.725 517.709 716.725 524.709 704.725 527.209C717.348 510.98 721.477 496.476 721.35 481.709C684.85 454.209 656.725 437.671 602.147 364.709C588.743 392.442 569.273 410.832 540.225 435.766C553.316 444.86 567.046 451.232 579.725 457.209C579.725 457.209 550.049 462.531 512.725 453.827C489.725 475.209 469.725 475.209 440.225 467.709C455.225 461.709 462.225 457.209 469.725 437.671C433.359 418.044 397.342 380.941 378.265 311.791C399.231 416.455 327.991 463.805 286.377 504C291.708 557.868 312.725 585.709 312.725 585.709C312.725 585.709 288.225 591.709 274.225 572.709C274.225 604.709 296.725 638.209 296.725 638.209C295.392 639.876 247.225 622.38 222.225 583.88Z" fill="#FFE4D6"/>
<path d="M544.722 207.886L544.539 210.379L544.685 210.39L544.831 210.384L544.722 207.886ZM442.234 727.222L441.953 729.706L441.953 729.706L442.234 727.222ZM296.725 638.209L298.677 639.771L299.823 638.338L298.8 636.815L296.725 638.209ZM274.225 572.709L276.238 571.226L271.725 565.102V572.709H274.225ZM312.725 585.709L313.32 588.137L317.009 587.234L314.72 584.203L312.725 585.709ZM373.725 293.209L376.128 292.52L371.281 293.733L373.725 293.209ZM440.225 467.709L439.297 465.388L432.167 468.24L439.609 470.132L440.225 467.709ZM512.725 453.827L513.293 451.392L513.293 451.392L512.725 453.827ZM579.725 457.209L580.166 459.67L587.875 458.287L580.791 454.948L579.725 457.209ZM602.147 364.709L599.896 363.621L602.147 364.709ZM619.725 305.709L622.211 305.972L617.263 305.275L619.725 305.709ZM713.225 437.671L715.646 437.048L710.767 438.124L713.225 437.671ZM704.725 527.209L702.752 525.674L698.575 531.044L705.235 529.656L704.725 527.209ZM729.225 508.209L731.425 507.02L729.3 503.09L727.062 506.956L729.225 508.209ZM729.225 596.709L726.909 595.768L723.851 603.297L730.612 598.789L729.225 596.709ZM769.225 556.709H771.725V548.832L767.183 555.267L769.225 556.709ZM771.225 586.709H773.725V585.344L772.577 584.606L771.225 586.709ZM224.5 582.844C184.907 495.95 228.376 400.401 300.687 327.414C336.771 290.992 379.867 260.392 422.928 239.567C466.025 218.725 508.885 207.772 544.539 210.379L544.904 205.393C508.059 202.698 464.294 214.009 420.751 235.066C377.171 256.142 333.612 287.077 297.135 323.895C224.322 397.389 179.043 495.139 219.95 584.917L224.5 582.844ZM544.831 210.384C586.313 208.565 630.846 223.272 671.956 248.504C713.048 273.725 750.548 309.361 777.939 349.129C805.341 388.914 822.515 432.669 823.22 474.134C823.923 515.492 808.257 554.719 769.659 585.761L772.792 589.657C812.64 557.61 828.948 516.891 828.219 474.049C827.492 431.314 809.829 386.615 782.056 346.293C754.272 305.954 716.261 269.831 674.571 244.243C632.9 218.666 587.382 203.514 544.612 205.388L544.831 210.384ZM219.728 583.994C221.395 620.66 250.013 654.024 291.213 679.608C332.529 705.264 387.09 723.497 441.953 729.706L442.515 724.738C388.299 718.602 334.465 700.58 293.851 675.36C253.122 650.068 226.276 617.933 224.723 583.767L219.728 583.994ZM220.129 585.242C232.916 604.934 251.562 619.174 267.087 628.264C274.863 632.817 281.905 636.108 287.121 638.163C289.722 639.188 291.909 639.922 293.529 640.349C294.326 640.56 295.064 640.717 295.679 640.782C295.976 640.814 296.353 640.837 296.742 640.794C296.961 640.769 297.965 640.661 298.677 639.771L294.773 636.647C295.119 636.214 295.521 636.02 295.732 635.939C295.952 635.855 296.123 635.832 296.188 635.824C296.315 635.81 296.343 635.825 296.208 635.811C295.959 635.784 295.5 635.699 294.804 635.515C293.437 635.154 291.447 634.494 288.954 633.511C283.982 631.552 277.171 628.375 269.613 623.95C254.472 615.084 236.534 601.326 224.322 582.519L220.129 585.242ZM296.725 638.209C298.8 636.815 298.801 636.815 298.801 636.816C298.801 636.816 298.801 636.816 298.801 636.815C298.8 636.815 298.8 636.814 298.799 636.813C298.797 636.81 298.794 636.805 298.789 636.798C298.78 636.784 298.765 636.762 298.746 636.733C298.706 636.673 298.647 636.582 298.568 636.461C298.41 636.218 298.175 635.854 297.875 635.376C297.274 634.421 296.411 633.013 295.373 631.221C293.295 627.636 290.523 622.522 287.751 616.424C282.184 604.178 276.725 588.186 276.725 572.709H271.725C271.725 589.232 277.516 605.99 283.199 618.493C286.052 624.771 288.905 630.032 291.046 633.728C292.117 635.577 293.012 637.036 293.642 638.038C293.957 638.539 294.206 638.925 294.377 639.189C294.463 639.321 294.53 639.422 294.575 639.491C294.598 639.526 294.616 639.553 294.629 639.571C294.635 639.581 294.64 639.588 294.643 639.593C294.645 639.596 294.646 639.598 294.647 639.6C294.648 639.6 294.649 639.601 294.649 639.602C294.649 639.602 294.65 639.603 296.725 638.209ZM272.212 574.192C279.754 584.427 290.129 587.894 298.449 588.819C302.607 589.281 306.293 589.115 308.941 588.836C310.267 588.696 311.341 588.526 312.093 588.389C312.469 588.321 312.765 588.26 312.972 588.216C313.076 588.194 313.157 588.175 313.215 588.162C313.245 588.155 313.268 588.15 313.285 588.146C313.294 588.143 313.301 588.142 313.307 588.14C313.31 588.14 313.312 588.139 313.315 588.139C313.316 588.138 313.317 588.138 313.317 588.138C313.319 588.138 313.32 588.137 312.725 585.709C312.13 583.281 312.131 583.281 312.132 583.28C312.132 583.28 312.133 583.28 312.133 583.28C312.134 583.28 312.134 583.28 312.134 583.28C312.134 583.28 312.132 583.28 312.129 583.281C312.123 583.282 312.111 583.285 312.093 583.289C312.058 583.297 312 583.311 311.921 583.328C311.763 583.362 311.518 583.412 311.197 583.47C310.554 583.587 309.605 583.738 308.416 583.863C306.032 584.115 302.718 584.262 299.001 583.849C291.571 583.024 282.696 579.991 276.238 571.226L272.212 574.192ZM467.391 436.775C463.704 446.381 460.246 451.999 456.069 455.951C451.877 459.918 446.766 462.4 439.297 465.388L441.154 470.03C448.685 467.018 454.573 464.25 459.506 459.583C464.454 454.9 468.246 448.499 472.059 438.567L467.391 436.775ZM468.538 439.871C483.398 447.891 498.305 453.031 512.157 456.262L513.293 451.392C499.808 448.248 485.328 443.251 470.912 435.471L468.538 439.871ZM512.157 456.262C531.066 460.671 548.031 461.527 560.272 461.281C566.395 461.159 571.344 460.76 574.773 460.39C576.488 460.205 577.823 460.027 578.737 459.895C579.193 459.828 579.544 459.773 579.784 459.734C579.904 459.715 579.997 459.699 580.061 459.688C580.092 459.683 580.117 459.678 580.135 459.675C580.144 459.674 580.151 459.672 580.156 459.672C580.159 459.671 580.161 459.671 580.163 459.67C580.163 459.67 580.164 459.67 580.165 459.67C580.166 459.67 580.166 459.67 579.725 457.209C579.284 454.748 579.284 454.748 579.285 454.748C579.285 454.748 579.285 454.748 579.285 454.748C579.285 454.748 579.284 454.748 579.283 454.748C579.281 454.749 579.277 454.749 579.272 454.75C579.261 454.752 579.242 454.755 579.217 454.76C579.166 454.768 579.088 454.782 578.981 454.799C578.768 454.834 578.445 454.884 578.017 454.947C577.162 455.071 575.887 455.241 574.237 455.419C570.935 455.775 566.133 456.163 560.171 456.282C548.243 456.522 531.707 455.687 513.293 451.392L512.157 456.262ZM439.609 470.132C454.444 473.904 467.215 475.882 479.284 474.071C491.442 472.246 502.638 466.618 514.427 455.658L511.023 451.996C499.813 462.418 489.509 467.48 478.542 469.126C467.485 470.786 455.506 469.014 440.841 465.286L439.609 470.132ZM580.791 454.948C568.077 448.954 554.542 442.668 541.651 433.713L538.799 437.819C552.091 447.053 566.015 453.509 578.659 459.47L580.791 454.948ZM541.651 433.713C519.101 418.047 498.413 394.131 488.668 349.179L483.782 350.239C493.807 396.483 515.258 421.465 538.799 437.819L541.651 433.713ZM541.853 437.663C570.907 412.723 590.746 394.042 604.398 365.797L599.896 363.621C586.739 390.841 567.638 408.94 538.597 433.869L541.853 437.663ZM604.398 365.797C612.12 349.821 617.822 330.879 622.187 306.143L617.263 305.275C612.95 329.715 607.359 348.182 599.896 363.621L604.398 365.797ZM600.145 366.206C627.506 402.783 648.287 425.285 666.849 442.109C685.377 458.903 701.693 470.029 719.846 483.706L722.855 479.712C704.508 465.889 688.512 454.996 670.207 438.405C651.937 421.845 631.367 399.597 604.149 363.212L600.145 366.206ZM710.804 438.294C714.954 454.424 718.735 468.211 718.85 481.73L723.85 481.688C723.728 467.418 719.738 452.95 715.646 437.048L710.804 438.294ZM718.85 481.73C718.972 495.91 715.044 509.87 702.752 525.674L706.699 528.744C719.653 512.089 723.982 497.041 723.85 481.688L718.85 481.73ZM705.235 529.656C718.145 526.967 725.659 519.359 731.389 509.462L727.062 506.956C721.792 516.059 715.306 522.451 704.215 524.762L705.235 529.656ZM727.026 509.398C736.87 527.609 739.942 541.265 739.106 554.172C738.261 567.203 733.434 579.708 726.909 595.768L731.542 597.65C738.017 581.71 743.19 568.465 744.095 554.496C745.009 540.403 741.581 525.809 731.425 507.02L727.026 509.398ZM730.612 598.789C748.93 586.577 759.139 575.334 771.268 558.151L767.183 555.267C755.312 572.084 745.521 582.84 727.839 594.629L730.612 598.789ZM766.725 556.709C766.725 556.632 766.729 556.869 766.291 557.619C765.889 558.308 765.309 559.114 764.565 560.134C763.149 562.075 761.235 564.649 760.037 567.574C758.806 570.579 758.259 574.117 759.719 577.925C761.152 581.66 764.376 585.278 769.873 588.812L772.577 584.606C767.575 581.39 765.298 578.508 764.388 576.134C763.505 573.832 763.77 571.652 764.664 569.469C765.591 567.206 767.114 565.124 768.604 563.081C769.313 562.109 770.054 561.091 770.609 560.141C771.128 559.252 771.725 558.036 771.725 556.709H766.725ZM617.239 305.446C614.552 330.876 610.302 342.094 599.896 363.621L604.398 365.797C614.979 343.906 619.448 332.124 622.211 305.972L617.239 305.446ZM723.809 481.255L715.684 437.217L710.767 438.124L718.892 482.163L723.809 481.255ZM312.725 585.709C314.72 584.203 314.721 584.203 314.721 584.204C314.721 584.204 314.722 584.205 314.722 584.205C314.722 584.205 314.722 584.205 314.721 584.204C314.72 584.203 314.718 584.2 314.715 584.195C314.708 584.186 314.696 584.17 314.679 584.147C314.645 584.101 314.592 584.028 314.521 583.929C314.379 583.73 314.163 583.423 313.883 583.008C313.324 582.18 312.508 580.922 311.506 579.239C309.503 575.872 306.759 570.804 303.845 564.063C298.016 550.582 291.502 530.406 288.865 503.754L283.889 504.246C286.582 531.462 293.243 552.14 299.255 566.047C302.261 572.999 305.105 578.258 307.209 581.795C308.262 583.564 309.129 584.902 309.74 585.807C310.045 586.259 310.286 586.603 310.454 586.837C310.538 586.955 310.604 587.045 310.65 587.108C310.673 587.14 310.692 587.164 310.705 587.182C310.712 587.191 310.717 587.198 310.721 587.204C310.723 587.207 310.725 587.209 310.726 587.211C310.727 587.212 310.728 587.213 310.728 587.213C310.729 587.214 310.73 587.215 312.725 585.709ZM288.865 503.754C287.001 484.914 287.072 462.825 290.7 437.564L285.75 436.854C282.066 462.516 281.986 485.008 283.889 504.246L288.865 503.754ZM768.725 586.709V587.709H773.725V586.709H768.725ZM288.114 505.798C329.329 465.989 402.008 417.587 380.716 311.3L375.814 312.282C396.455 415.322 326.653 461.621 284.64 502.202L288.114 505.798ZM380.675 311.126C379.046 305.221 377.54 299.077 376.169 292.685L371.281 293.733C372.671 300.217 374.199 306.455 375.855 312.456L380.675 311.126ZM371.322 293.898C373.136 300.224 374.625 306.349 375.814 312.282L380.716 311.3C379.5 305.228 377.978 298.971 376.128 292.52L371.322 293.898ZM375.855 312.456C395.105 382.232 431.545 419.905 468.538 439.871L470.912 435.471C435.174 416.183 399.579 379.65 380.675 311.126L375.855 312.456ZM582.36 723.974C631.452 716.822 677.347 703.363 711.94 681.465C746.598 659.527 770.034 629.02 773.715 587.932L768.735 587.486C765.227 626.647 742.966 655.909 709.266 677.241C675.501 698.614 630.378 711.925 581.639 719.026L582.36 723.974ZM581.654 719.024C536.674 725.302 487.507 729.83 442.515 724.738L441.953 729.706C487.592 734.872 537.27 730.268 582.345 723.976L581.654 719.024ZM582.345 723.976C632.052 717.038 677.939 703.774 712.378 681.914C746.892 660.006 770.001 629.387 773.715 587.932L768.735 587.486C765.191 627.054 743.218 656.416 709.699 677.692C676.105 699.015 631.009 712.135 581.654 719.024L582.345 723.976Z" fill="black"/>
<path fill-rule="evenodd" clip-rule="evenodd" d="M571.5 807.002C761 751.002 880.5 658 865 618.5C930.357 551.162 892.259 394.592 869.661 301.724L868.999 299.001C918.999 322.501 1029 175 811.999 191.001C714.499 74.9997 413 -68.5005 191.5 200.499C-19.9998 223 -66 387 128 387C85.5013 515.498 128.499 617 145.499 656.502C200 831.5 520.001 765.502 571.5 807.002ZM526.499 207.317C896.499 237.817 945.999 717.002 546.499 765.502C221.018 765.502 117.828 490.974 307.499 316.914C416.499 227.501 431.351 230.731 526.499 207.317Z" fill="url(#paint2_linear_133_678)"/>
<path d="M868.999 299.001C918.999 322.501 1029 175 811.999 191.001M868.999 299.001L869.661 301.724M868.999 299.001C869.218 299.903 869.439 300.81 869.661 301.724M811.999 191.001C714.499 74.9997 413 -68.5005 191.5 200.499C-19.9998 223 -66 387 128 387M811.999 191.001C825.025 206.5 836.5 228.5 839.5 252M128 387C85.5013 515.498 128.499 617 145.499 656.502C200 831.5 520.001 765.502 571.5 807.002C761 751.002 880.5 658 865 618.5C930.357 551.162 892.259 394.592 869.661 301.724M128 387C163.5 377 191 350.414 197 316.914M546.499 765.502C945.999 717.002 896.499 237.817 526.499 207.317C431.351 230.731 416.499 227.501 307.499 316.914C117.828 490.974 221.018 765.502 546.499 765.502Z" stroke="black" stroke-width="9"/>
<defs>
<linearGradient id="paint0_linear_133_678" x1="531.5" y1="307" x2="516.371" y2="757.202" gradientUnits="userSpaceOnUse">
<stop stop-color="#FE9FA4"/>
<stop offset="1" stop-color="#FFFCFE"/>
</linearGradient>
<linearGradient id="paint1_linear_133_678" x1="531.5" y1="307" x2="516.371" y2="757.202" gradientUnits="userSpaceOnUse">
<stop stop-color="#FE9FA4"/>
<stop offset="1" stop-color="#FFFCFE"/>
</linearGradient>
<linearGradient id="paint2_linear_133_678" x1="473.253" y1="47.2559" x2="473.253" y2="807.002" gradientUnits="userSpaceOnUse">
<stop stop-color="#FAFFF8"/>
<stop offset="1" stop-color="#C9FFBB"/>
</linearGradient>
</defs>
</svg>
