<svg width="417" height="232" viewBox="0 0 417 232" fill="none" xmlns="http://www.w3.org/2000/svg">
<path d="M162 94.5C138.4 86.1 68.4999 65.5 16.9999 35.5C-6.00005 81.5 8.99994 114.033 30.9999 126.5C75.9999 152 128.5 139.5 162 94.5Z" fill="#F2F2F2"/>
<path d="M255 99.5002C278.6 91.1002 348.5 70.5002 400 40.5002C423 86.5002 408 119.034 386 131.5C341 157 288.5 144.5 255 99.5002Z" fill="#F2F2F2"/>
<path d="M144 213.5L174 157.5L189 179.5L214.5 146.5L229.5 179.5L246 151L255 226L144 213.5Z" fill="#DF3D3D"/>
<path d="M162 94.5C138.4 86.1 68.4999 65.5 16.9999 35.5C-6.00005 81.5 8.99994 114.033 30.9999 126.5C75.9999 152 128.5 139.5 162 94.5Z" fill="#F2F2F2"/>
<path d="M255 99.5002C278.6 91.1002 400 40.5002 400 40.5002C423 86.5002 408 119.034 386 131.5C341 157 288.5 144.5 255 99.5002Z" fill="#F2F2F2"/>
<path d="M162 94.5C138.4 86.1 68.4999 65.5 16.9999 35.5C-6.00005 81.5 8.99994 114.033 30.9999 126.5C75.9999 152 128.5 139.5 162 94.5Z" fill="#F2F2F2"/>
<path d="M255 99.5002C278.6 91.1002 348.5 70.5002 400 40.5002C423 86.5002 408 119.034 386 131.5C341 157 288.5 144.5 255 99.5002Z" fill="#F2F2F2"/>
<path d="M144 213.5L174 157.5L189 179.5L214.5 146.5L229.5 179.5L246 151L255 226L144 213.5Z" fill="#DF3D3D"/>
<path d="M162 94.5C138.4 86.1 68.4999 65.5 16.9999 35.5C-6.00005 81.5 8.99994 114.033 30.9999 126.5C75.9999 152 128.5 139.5 162 94.5Z" fill="#F2F2F2"/>
<path d="M255 99.5002C278.6 91.1002 400 40.5002 400 40.5002C423 86.5002 408 119.034 386 131.5C341 157 288.5 144.5 255 99.5002Z" fill="#F2F2F2"/>
<path d="M255 99.5002L253.323 94.7897L246.949 97.0586L250.989 102.486L255 99.5002ZM400 40.5002L404.472 38.2642L402.385 34.0893L398.076 35.8851L400 40.5002ZM386 131.5L383.535 127.15L386 131.5ZM162 94.5L166.011 97.4857L170.051 92.0583L163.677 89.7895L162 94.5ZM16.9999 35.5L19.5167 31.1796L14.9113 28.4969L12.5278 33.2639L16.9999 35.5ZM30.9999 126.5L28.5349 130.85L30.9999 126.5ZM144 213.5L139.593 211.139L136.108 217.643L143.44 218.469L144 213.5ZM174 157.5L178.131 154.683L173.486 147.871L169.593 155.139L174 157.5ZM189 179.5L184.869 182.317L188.747 188.005L192.956 182.557L189 179.5ZM214.5 146.5L219.052 144.431L215.618 136.876L210.544 143.443L214.5 146.5ZM229.5 179.5L224.948 181.569L228.964 190.405L233.827 182.005L229.5 179.5ZM246 151L250.964 150.404L249.179 135.529L241.673 148.495L246 151ZM255 226L254.441 230.969L260.717 231.675L259.964 225.404L255 226ZM256.677 104.211C279.848 95.9635 350.486 75.1299 402.517 44.8207L397.483 36.1798C346.514 65.8706 277.353 86.237 253.323 94.7897L256.677 104.211ZM395.528 42.7363C406.622 64.9243 408.311 83.3592 405.007 97.4325C401.702 111.513 393.325 121.602 383.535 127.15L388.465 135.85C400.675 128.931 410.798 116.52 414.743 99.7179C418.689 82.9079 416.378 62.0762 404.472 38.2642L395.528 42.7363ZM383.535 127.15C340.959 151.277 291.168 139.711 259.011 96.5145L250.989 102.486C285.832 149.289 341.041 162.724 388.465 135.85L383.535 127.15ZM163.677 89.7895C139.647 81.2367 70.4859 60.8704 19.5167 31.1796L14.4832 39.8204C66.514 70.1296 137.152 90.9633 160.323 99.2105L163.677 89.7895ZM12.5278 33.2639C0.621792 57.076 -1.68896 77.9077 2.25727 94.7177C6.20175 111.52 16.325 123.931 28.5349 130.85L33.465 122.15C23.6749 116.602 15.2981 106.513 11.9926 92.4323C8.68885 78.359 10.3781 59.924 21.4721 37.7361L12.5278 33.2639ZM28.5349 130.85C75.9587 157.724 131.168 144.289 166.011 97.4857L157.989 91.5143C125.832 134.711 76.0411 146.276 33.465 122.15L28.5349 130.85ZM65.1818 9.43017L151.182 54.4302L155.818 45.5698L69.818 0.569834L65.1818 9.43017ZM265.103 63.9208L334.603 8.9208L328.397 1.0792L258.897 56.0792L265.103 63.9208ZM148.407 215.861L178.407 159.861L169.593 155.139L139.593 211.139L148.407 215.861ZM169.869 160.317L184.869 182.317L193.131 176.683L178.131 154.683L169.869 160.317ZM192.956 182.557L218.456 149.557L210.544 143.443L185.044 176.443L192.956 182.557ZM209.948 148.569L224.948 181.569L234.052 177.431L219.052 144.431L209.948 148.569ZM233.827 182.005L250.327 153.505L241.673 148.495L225.173 176.995L233.827 182.005ZM241.036 151.596L250.036 226.596L259.964 225.404L250.964 150.404L241.036 151.596ZM255.56 221.031L144.559 208.531L143.44 218.469L254.441 230.969L255.56 221.031ZM256.677 104.211C268.622 99.9591 305.02 85.1465 338.252 71.4742C354.908 64.6217 370.826 58.0322 382.579 53.156C388.455 50.7179 393.291 48.7079 396.658 47.3074C398.341 46.6071 399.657 46.0592 400.553 45.6864C401.001 45.4999 401.343 45.3572 401.574 45.2611C401.689 45.2131 401.777 45.1767 401.835 45.1523C401.864 45.1401 401.886 45.1309 401.901 45.1247C401.909 45.1216 401.914 45.1193 401.918 45.1178C401.92 45.117 401.921 45.1164 401.922 45.116C401.923 45.1156 401.924 45.1154 400 40.5002C398.076 35.8851 398.076 35.8853 398.075 35.8856C398.074 35.886 398.073 35.8866 398.071 35.8874C398.067 35.8889 398.062 35.8912 398.054 35.8942C398.04 35.9003 398.018 35.9095 397.989 35.9216C397.93 35.9459 397.843 35.9822 397.728 36.0302C397.498 36.1261 397.156 36.2685 396.709 36.4548C395.814 36.8272 394.499 37.3746 392.817 38.0743C389.453 39.4738 384.62 41.4826 378.746 43.9195C366.999 48.7933 351.092 55.3788 334.448 62.2263C301.08 75.954 264.978 90.6414 253.323 94.7897L256.677 104.211Z" fill="black"/>
</svg>
