<svg width="450" height="249" viewBox="0 0 450 249" fill="none" xmlns="http://www.w3.org/2000/svg">
<path d="M417 131C417 156.025 391.679 177 359.5 177C327.321 177 302 156.025 302 131C302 105.975 327.321 85 359.5 85C391.679 85 417 105.975 417 131Z" fill="white"/>
<path d="M417 131C417 156.025 391.679 177 359.5 177C327.321 177 302 156.025 302 131C302 105.975 327.321 85 359.5 85C391.679 85 417 105.975 417 131Z" fill="white"/>
<path d="M417 131C417 156.025 391.679 177 359.5 177C327.321 177 302 156.025 302 131C302 105.975 327.321 85 359.5 85C391.679 85 417 105.975 417 131Z" fill="white"/>
<path d="M417 131C417 156.025 391.679 177 359.5 177C327.321 177 302 156.025 302 131C302 105.975 327.321 85 359.5 85C391.679 85 417 105.975 417 131Z" stroke="black" stroke-width="4"/>
<path d="M145.399 116.522C148.519 141.494 126.076 165.526 94.2717 169.499C62.467 173.472 34.8026 155.7 31.6831 130.728C28.5636 105.755 51.006 81.7237 82.8107 77.7507C114.615 73.7778 142.28 91.5502 145.399 116.522Z" fill="white"/>
<path d="M145.399 116.522C148.519 141.494 126.076 165.526 94.2717 169.499C62.467 173.472 34.8026 155.7 31.6831 130.728C28.5636 105.755 51.006 81.7237 82.8107 77.7507C114.615 73.7778 142.28 91.5502 145.399 116.522Z" fill="white"/>
<path d="M145.399 116.522C148.519 141.494 126.076 165.526 94.2717 169.499C62.467 173.472 34.8026 155.7 31.6831 130.728C28.5636 105.755 51.006 81.7237 82.8107 77.7507C114.615 73.7778 142.28 91.5502 145.399 116.522Z" fill="white"/>
<path d="M145.399 116.522C148.519 141.494 126.076 165.526 94.2717 169.499C62.467 173.472 34.8026 155.7 31.6831 130.728C28.5636 105.755 51.006 81.7237 82.8107 77.7507C114.615 73.7778 142.28 91.5502 145.399 116.522Z" stroke="black" stroke-width="4"/>
<path d="M300 39.7381C357.176 -26.0094 401.647 6.08249 435 46" stroke="black" stroke-width="3"/>
<path d="M24 39.7381C80.7529 -26.0094 124.894 6.08249 158 46" stroke="black" stroke-width="3"/>
<path d="M186.467 201.536C194.285 205.25 203.56 191.263 211.711 188.538C219.057 196.772 229.244 202.395 236.956 202.285C231.433 222.557 240.111 243.515 211.711 240.754C192.178 238.855 188.169 232.795 186.467 201.536Z" fill="white"/>
<path d="M211.711 188.538L213.203 187.207L212.326 186.224L211.077 186.641L211.711 188.538ZM186.467 201.536L187.325 199.73L187.325 199.73L186.467 201.536ZM236.956 202.285L236.927 200.286L236.956 202.285ZM211.711 240.754L211.518 242.744L211.711 240.754ZM175.052 183.455C176.422 189.326 177.955 193.727 179.657 196.919C181.354 200.104 183.31 202.251 185.609 203.343L187.325 199.73C186.091 199.144 184.664 197.809 183.186 195.037C181.713 192.273 180.278 188.244 178.948 182.545L175.052 183.455ZM185.609 203.343C188.222 204.584 190.876 204.276 193.301 203.314C195.678 202.371 198.013 200.734 200.196 199.027C201.299 198.165 202.402 197.253 203.473 196.372C204.554 195.484 205.605 194.623 206.643 193.829C208.749 192.217 210.638 191.006 212.345 190.435L211.077 186.641C208.708 187.433 206.382 188.992 204.212 190.653C203.111 191.495 202.01 192.397 200.933 193.283C199.846 194.176 198.787 195.051 197.732 195.876C195.6 197.543 193.641 198.876 191.826 199.596C190.058 200.298 188.621 200.345 187.325 199.73L185.609 203.343ZM210.219 189.87C214.04 194.152 218.602 197.761 223.237 200.296C227.848 202.816 232.668 204.347 236.984 204.285L236.927 200.286C233.532 200.334 229.403 199.108 225.156 196.786C220.933 194.477 216.729 191.158 213.203 187.207L210.219 189.87ZM236.984 204.285C240.587 204.234 243.939 203.061 246.362 200.327C248.759 197.622 250 193.666 250 188.538H246C246 193.07 244.902 195.943 243.368 197.674C241.861 199.375 239.69 200.246 236.927 200.286L236.984 204.285ZM184.47 201.645C184.896 209.482 185.471 215.824 186.415 220.947C187.358 226.063 188.693 230.099 190.722 233.24C194.912 239.725 201.649 241.785 211.518 242.744L211.905 238.763C202.24 237.824 197.205 235.904 194.082 231.07C192.455 228.551 191.247 225.093 190.349 220.222C189.452 215.357 188.888 209.22 188.464 201.428L184.47 201.645ZM211.518 242.744C218.8 243.452 224.074 242.685 227.863 240.489C231.733 238.246 233.719 234.712 234.839 230.694C235.937 226.756 236.268 222.096 236.668 217.407C237.075 212.631 237.558 207.685 238.885 202.811L235.026 201.76C233.592 207.022 233.089 212.297 232.682 217.067C232.269 221.922 231.959 226.13 230.986 229.62C230.035 233.03 228.52 235.485 225.857 237.028C223.113 238.619 218.823 239.436 211.905 238.763L211.518 242.744Z" fill="black"/>
<path d="M39.5642 130.472C38.4232 130.373 38.2596 128.612 39.3602 128.295C87.8528 114.332 83.5636 87.7117 86.7623 83.5046C87.0586 83.1149 87.5983 83.3346 87.8273 83.7671C104.225 114.733 111.555 114.936 141.288 117.128C142.307 117.203 142.564 118.563 141.635 118.988C116.75 130.37 100.849 131.044 96.4699 167.53C96.3502 168.527 94.9887 168.775 94.5443 167.875C82.4069 143.281 79.5666 133.934 39.5642 130.472Z" fill="black"/>
<path d="M96.4699 167.53L97.9592 167.709L96.4699 167.53ZM94.5443 167.875L95.8894 167.211L94.5443 167.875ZM141.288 117.128L141.178 118.624L141.288 117.128ZM141.635 118.988L142.259 120.352L141.635 118.988ZM86.7623 83.5046L87.9564 84.4124L86.7623 83.5046ZM87.8273 83.7671L89.1529 83.0652L87.8273 83.7671ZM39.3602 128.295L39.7752 129.737L39.3602 128.295ZM39.5642 130.472L39.4348 131.966L39.5642 130.472ZM39.7752 129.737C64.2901 122.678 75.7005 112.342 81.3306 103.017C84.1329 98.3748 85.4577 94.0561 86.2829 90.6695C86.4885 89.8258 86.6633 89.0387 86.8203 88.3268C86.9788 87.6082 87.1164 86.9792 87.253 86.4212C87.5453 85.2277 87.7724 84.6544 87.9564 84.4124L85.5682 82.5967C84.9525 83.4066 84.614 84.5854 84.3391 85.7075C84.1922 86.3074 84.0459 86.977 83.8907 87.6807C83.734 88.3912 83.5653 89.1503 83.3682 89.9593C82.5826 93.1835 81.3491 97.1814 78.7623 101.466C73.6142 109.993 62.9229 119.949 38.9451 126.854L39.7752 129.737ZM86.5017 84.4691C94.7082 99.9662 100.813 108.123 108.832 112.551C116.785 116.942 126.446 117.538 141.178 118.624L141.399 115.632C126.398 114.526 117.527 113.925 110.282 109.925C103.104 105.961 97.3444 98.5339 89.1529 83.0652L86.5017 84.4691ZM141.011 117.624C134.744 120.491 129.293 122.573 124.09 124.872C118.995 127.121 114.393 129.476 110.422 132.677C102.375 139.163 97.197 148.886 94.9806 167.352L97.9592 167.709C100.122 149.689 105.085 140.832 112.304 135.013C115.966 132.062 120.279 129.834 125.301 127.616C130.215 125.446 136.084 123.177 142.259 120.352L141.011 117.624ZM95.8894 167.211C89.8917 155.058 85.9944 146.185 78.4467 140.082C70.8473 133.938 59.7414 130.713 39.6935 128.977L39.4348 131.966C59.3894 133.693 69.7049 136.872 76.5605 142.415C83.4679 148 87.0595 156.098 93.1992 168.539L95.8894 167.211ZM94.9806 167.352C94.9918 167.259 95.041 167.149 95.1276 167.064C95.205 166.987 95.2899 166.951 95.3629 166.938C95.436 166.925 95.5333 166.928 95.6397 166.977C95.7588 167.031 95.8465 167.124 95.8894 167.211L93.1992 168.539C94.3309 170.832 97.669 170.127 97.9592 167.709L94.9806 167.352ZM141.178 118.624C141.091 118.618 140.972 118.575 140.872 118.48C140.781 118.395 140.735 118.295 140.718 118.203C140.701 118.112 140.707 117.997 140.764 117.878C140.828 117.747 140.929 117.661 141.011 117.624L142.259 120.352C144.654 119.256 143.903 115.817 141.399 115.632L141.178 118.624ZM87.9564 84.4124C87.8477 84.5554 87.67 84.695 87.4344 84.7624C87.2109 84.8264 87.0169 84.8027 86.8883 84.7641C86.6577 84.6948 86.5506 84.5615 86.5017 84.4691L89.1529 83.0652C88.875 82.5402 88.3835 82.0809 87.7517 81.891C87.0369 81.6762 86.146 81.8368 85.5682 82.5967L87.9564 84.4124ZM38.9451 126.854C37.521 127.264 37.0344 128.601 37.1281 129.605C37.2219 130.61 37.951 131.838 39.4348 131.966L39.6935 128.977C39.8159 128.988 39.9471 129.056 40.0322 129.155C40.101 129.235 40.1127 129.3 40.1151 129.326C40.1175 129.352 40.1179 129.416 40.0672 129.504C40.0046 129.613 39.8921 129.703 39.7752 129.737L38.9451 126.854Z" fill="black"/>
<path d="M308.725 129.209C307.597 129.017 307.576 127.251 308.698 127.025C358.343 117.001 356.242 89.9342 359.786 85.9785C360.113 85.6132 360.634 85.8767 360.827 86.3278C374.666 118.739 381.972 119.536 411.518 124.175C412.526 124.333 412.671 125.707 411.712 126.056C385.898 135.442 369.947 134.802 362.568 171.056C362.368 172.041 360.989 172.177 360.62 171.241C350.512 145.567 348.449 135.961 308.725 129.209Z" fill="black"/>
<path d="M362.568 171.056L364.038 171.356L362.568 171.056ZM360.62 171.241L359.225 171.791L360.62 171.241ZM411.518 124.175L411.285 125.657L411.518 124.175ZM411.712 126.056L411.2 124.646L411.712 126.056ZM359.786 85.9785L360.903 86.9795L359.786 85.9785ZM360.827 86.3278L359.447 86.9169L360.827 86.3278ZM308.698 127.025L308.995 128.495L308.698 127.025ZM308.725 129.209L308.976 127.73L308.725 129.209ZM308.995 128.495C334.093 123.428 346.352 113.994 352.748 105.102C355.931 100.676 357.61 96.4525 358.714 93.123C358.988 92.2935 359.228 91.5183 359.443 90.817C359.661 90.1091 359.85 89.4891 360.033 88.9403C360.423 87.767 360.698 87.2085 360.903 86.9795L358.669 84.9776C357.988 85.7375 357.553 86.8901 357.186 87.9933C356.99 88.5828 356.789 89.2424 356.576 89.9358C356.361 90.6358 356.13 91.3837 355.866 92.1793C354.815 95.3507 353.252 99.2622 350.312 103.35C344.461 111.486 332.948 120.598 308.401 125.554L308.995 128.495ZM359.447 86.9169C366.373 103.136 371.801 111.817 379.451 116.914C387.038 121.969 396.646 123.358 411.285 125.657L411.75 122.693C396.844 120.352 388.026 119.023 381.114 114.418C374.265 109.854 369.12 101.93 362.206 85.7388L359.447 86.9169ZM411.2 124.646C404.7 127.01 399.076 128.654 393.687 130.532C388.409 132.372 383.615 134.356 379.382 137.241C370.806 143.085 364.832 152.411 361.098 170.757L364.038 171.356C367.683 153.447 373.374 144.966 381.072 139.72C384.975 137.06 389.471 135.178 394.674 133.365C399.766 131.591 405.817 129.796 412.225 127.466L411.2 124.646ZM362.016 170.692C357.021 158.004 353.858 148.785 346.816 142.045C339.724 135.259 328.885 131.114 308.976 127.73L308.474 130.688C328.289 134.056 338.343 138.09 344.741 144.213C351.189 150.383 354.112 158.804 359.225 171.791L362.016 170.692ZM361.098 170.757C361.117 170.665 361.175 170.56 361.269 170.482C361.352 170.412 361.44 170.383 361.514 170.376C361.587 170.369 361.684 170.38 361.786 170.438C361.901 170.502 361.981 170.602 362.016 170.692L359.225 171.791C360.163 174.174 363.552 173.743 364.038 171.356L361.098 170.757ZM411.285 125.657C411.198 125.643 411.083 125.59 410.992 125.488C410.909 125.396 410.87 125.292 410.861 125.2C410.851 125.107 410.867 124.994 410.933 124.88C411.007 124.754 411.115 124.677 411.2 124.646L412.225 127.466C414.697 126.567 414.23 123.082 411.75 122.693L411.285 125.657ZM360.903 86.9795C360.784 87.1131 360.595 87.2381 360.355 87.2863C360.126 87.3321 359.934 87.2925 359.809 87.2434C359.584 87.1552 359.488 87.0131 359.447 86.9169L362.206 85.7388C361.973 85.1915 361.52 84.6921 360.905 84.4507C360.209 84.1775 359.306 84.266 358.669 84.9776L360.903 86.9795ZM308.401 125.554C306.949 125.847 306.356 127.139 306.368 128.148C306.38 129.157 307.007 130.438 308.474 130.688L308.976 127.73C309.097 127.75 309.222 127.829 309.299 127.934C309.361 128.019 309.367 128.085 309.368 128.112C309.368 128.138 309.363 128.202 309.305 128.286C309.234 128.39 309.114 128.471 308.995 128.495L308.401 125.554Z" fill="black"/>
<ellipse cx="396.575" cy="210.649" rx="49.812" ry="24.5107" transform="rotate(-10.4264 396.575 210.649)" fill="#F4B5B5"/>
<ellipse cx="396.575" cy="210.649" rx="49.812" ry="24.5107" transform="rotate(-10.4264 396.575 210.649)" fill="#F4B5B5"/>
<ellipse cx="53.6374" cy="214.451" rx="49.812" ry="24.5107" transform="rotate(11.2529 53.6374 214.451)" fill="#F4B5B5"/>
<ellipse cx="53.6374" cy="214.451" rx="49.812" ry="24.5107" transform="rotate(11.2529 53.6374 214.451)" fill="#F4B5B5"/>
<path d="M52.9747 183.853L55.3467 196.504" stroke="black" stroke-width="2" stroke-linecap="round"/>
<path d="M68 187L69 200" stroke="black" stroke-width="2" stroke-linecap="round"/>
<path d="M80.648 188.597L82.2294 201.248" stroke="black" stroke-width="2" stroke-linecap="round"/>
<path d="M52.9747 183.853L55.3467 196.504" stroke="black" stroke-width="2" stroke-linecap="round"/>
<path d="M80.648 188.597L82.2294 201.248" stroke="black" stroke-width="2" stroke-linecap="round"/>
<path d="M384 187L383 200" stroke="black" stroke-width="2" stroke-linecap="round"/>
<path d="M399.287 183.853L396.915 196.504" stroke="black" stroke-width="2" stroke-linecap="round"/>
<path d="M371.613 188.597L370.032 201.248" stroke="black" stroke-width="2" stroke-linecap="round"/>
</svg>
