<svg width="440" height="261" viewBox="0 0 440 261" fill="none" xmlns="http://www.w3.org/2000/svg">
<path d="M180.314 206.502C180.151 205.883 180.608 205.257 181.248 205.243L284.709 203.018C285.198 203.008 285.626 203.356 285.701 203.839C287.49 215.266 280.99 221.944 272.985 230.632C272.773 230.863 272.679 231.176 272.737 231.484C274.326 239.915 278.483 255.889 268.228 258.96C268.139 258.986 268.043 259.001 267.95 258.998C262.928 258.846 259.294 250.574 258.997 241.307C258.977 240.674 258.403 240.199 257.782 240.322C228.615 246.131 191.226 247.795 180.314 206.502Z" fill="white"/>
<path d="M258.997 241.307L257.498 241.355L258.997 241.307ZM257.782 240.322L257.489 238.851L257.782 240.322ZM268.228 258.96L267.798 257.523L268.228 258.96ZM267.95 258.998L267.905 260.497L267.95 258.998ZM272.985 230.632L271.882 229.616L272.985 230.632ZM272.737 231.484L271.263 231.762L271.263 231.762L272.737 231.484ZM285.701 203.839L284.219 204.071L285.701 203.839ZM181.28 206.743L284.741 204.518L284.677 201.519L181.216 203.744L181.28 206.743ZM284.219 204.071C285.878 214.67 279.994 220.811 271.882 229.616L274.089 231.649C281.985 223.077 289.102 215.863 287.183 203.607L284.219 204.071ZM271.263 231.762C272.078 236.088 273.467 241.979 273.424 247.22C273.403 249.825 273.024 252.115 272.14 253.887C271.284 255.603 269.938 256.882 267.798 257.523L268.658 260.397C271.646 259.502 273.625 257.632 274.825 255.226C275.996 252.876 276.401 250.07 276.424 247.244C276.47 241.623 274.985 235.312 274.211 231.206L271.263 231.762ZM267.995 257.499C266.358 257.449 264.56 256.027 263.052 252.916C261.59 249.902 260.64 245.733 260.496 241.259L257.498 241.355C257.651 246.147 258.667 250.749 260.352 254.225C261.991 257.605 264.52 260.395 267.905 260.497L267.995 257.499ZM257.489 238.851C242.948 241.747 226.605 243.55 212.607 239.631C205.636 237.679 199.271 234.315 193.987 228.969C188.704 223.624 184.436 216.23 181.765 206.119L178.864 206.885C181.648 217.421 186.146 225.304 191.853 231.078C197.561 236.853 204.411 240.452 211.798 242.52C226.514 246.64 243.449 244.706 258.075 241.793L257.489 238.851ZM260.496 241.259C260.448 239.741 259.058 238.539 257.489 238.851L258.075 241.793C257.747 241.859 257.506 241.607 257.498 241.355L260.496 241.259ZM267.798 257.523C267.846 257.508 267.911 257.496 267.995 257.499L267.905 260.497C268.175 260.505 268.432 260.465 268.658 260.397L267.798 257.523ZM271.882 229.616C271.36 230.183 271.114 230.972 271.263 231.762L274.211 231.206C274.244 231.38 274.186 231.543 274.089 231.649L271.882 229.616ZM284.741 204.518C284.501 204.523 284.263 204.351 284.219 204.071L287.183 203.607C286.988 202.36 285.895 201.492 284.677 201.519L284.741 204.518ZM181.216 203.744C179.574 203.779 178.46 205.357 178.864 206.885L181.765 206.119C181.841 206.408 181.641 206.735 181.28 206.743L181.216 203.744Z" fill="black"/>
<path d="M296 47.9998C349.116 -14.1498 395.016 10.2669 426 48" stroke="black" stroke-width="3" stroke-linecap="round"/>
<path d="M27 48C74.1345 -33.1144 126.573 10.1545 157 47.9997" stroke="black" stroke-width="3" stroke-linecap="round"/>
<ellipse cx="387.762" cy="208.393" rx="48.7051" ry="23.966" transform="rotate(-10.4264 387.762 208.393)" fill="#F4B5B5"/>
<ellipse cx="387.762" cy="208.393" rx="48.7051" ry="23.966" transform="rotate(-10.4264 387.762 208.393)" fill="#F4B5B5"/>
<ellipse cx="52.4455" cy="212.11" rx="48.7051" ry="23.966" transform="rotate(11.2529 52.4455 212.11)" fill="#F4B5B5"/>
<ellipse cx="52.4455" cy="212.11" rx="48.7051" ry="23.966" transform="rotate(11.2529 52.4455 212.11)" fill="#F4B5B5"/>
<path d="M51.7974 182.193L54.1167 194.562" stroke="black" stroke-width="2" stroke-linecap="round"/>
<path d="M66 185L67 198" stroke="black" stroke-width="2" stroke-linecap="round"/>
<path d="M51.7974 182.193L54.1167 194.562" stroke="black" stroke-width="2" stroke-linecap="round"/>
<path d="M376 185L374 198" stroke="black" stroke-width="2" stroke-linecap="round"/>
<path d="M363.355 186.832L361.809 199.202" stroke="black" stroke-width="2" stroke-linecap="round"/>
<path d="M46.4235 83.9049C32.8339 96.2045 30.4611 121.139 44.2539 140.373C49.0264 150.375 68.7739 164.692 95 177C95 151.147 95 96.9844 95 96.9844C85.086 79.7534 60.0131 71.6052 46.4235 83.9049Z" fill="#F30021"/>
<path d="M143.576 83.9049C157.166 96.2045 159.539 121.139 145.746 140.373C140.974 150.375 121.226 164.692 95 177C95 151.147 95 96.9844 95 96.9844C104.914 79.7534 129.987 71.6052 143.576 83.9049Z" fill="#F30021"/>
<path d="M318.423 83.9049C304.834 96.2045 302.461 121.139 316.254 140.373C321.026 150.375 340.774 164.692 367 177C367 151.147 367 96.9844 367 96.9844C357.086 79.7534 332.013 71.6052 318.423 83.9049Z" fill="#F30021"/>
<path d="M415.576 83.9049C429.166 96.2045 431.539 121.139 417.746 140.373C412.974 150.375 393.226 164.692 367 177C367 151.147 367 96.9844 367 96.9844C376.914 79.7534 401.987 71.6052 415.576 83.9049Z" fill="#F30021"/>
<circle cx="410.972" cy="104.203" r="9.16667" fill="#F4F4F4"/>
<circle cx="410.972" cy="104.203" r="9.16667" fill="#F4F4F4"/>
<circle cx="410.972" cy="104.203" r="9.16667" fill="#F4F4F4"/>
<circle cx="410.972" cy="104.203" r="9.16667" fill="#F4F4F4"/>
<circle cx="410.972" cy="104.203" r="9.16667" fill="#F4F4F4"/>
<circle cx="410.972" cy="104.203" r="9.16667" fill="#F4F4F4"/>
<circle cx="410.972" cy="104.203" r="9.16667" fill="#F4F4F4"/>
<circle cx="135.972" cy="104.203" r="9.16667" fill="#F4F4F4"/>
<circle cx="135.972" cy="104.203" r="9.16667" fill="#F4F4F4"/>
<circle cx="135.972" cy="104.203" r="9.16667" fill="#F4F4F4"/>
<circle cx="135.972" cy="104.203" r="9.16667" fill="#F4F4F4"/>
<circle cx="135.972" cy="104.203" r="9.16667" fill="#F4F4F4"/>
<circle cx="135.972" cy="104.203" r="9.16667" fill="#F4F4F4"/>
<circle cx="135.972" cy="104.203" r="9.16667" fill="#F4F4F4"/>
</svg>
