<svg width="435" height="239" viewBox="0 0 435 239" fill="none" xmlns="http://www.w3.org/2000/svg">
<path d="M9.98452 179.918C-2.51559 95.4185 46.9846 84.9175 75.9845 84.9185C143.984 90.9175 146.985 141.917 141.985 159.917C132.851 192.799 98.4846 215.417 63.4845 196.418C30.4843 167.418 36.4843 133.918 59.9843 120.918C93.7319 102.25 117.484 137.418 109.485 150.918C95.9843 186.418 68.4845 157.918 75.9845 144.418M292.985 179.919C280.485 95.419 329.985 84.918 358.985 84.9189C426.985 90.918 429.985 141.918 424.985 159.918C415.851 192.799 381.485 215.418 346.485 196.419C313.485 167.419 319.485 133.919 342.985 120.919C376.732 102.25 400.485 137.419 392.485 150.919C378.985 186.419 351.485 157.919 358.985 144.419" stroke="black" stroke-width="15" stroke-linecap="round"/>
<path d="M9.98462 65.4189C49.9846 65.4189 72.4846 53.9189 100.985 30.9189" stroke="black" stroke-width="9" stroke-linecap="round"/>
<path d="M295.984 26.6892C334.556 37.2827 361.985 36.9189 400.485 26.6873" stroke="black" stroke-width="9" stroke-linecap="round"/>
<path d="M205.985 222.418L207.565 218.205L207.418 218.15L207.267 218.105L205.985 222.418ZM244.485 230.918L246.331 235.022L244.485 230.918ZM287.711 229.055C289.444 227.273 289.403 224.424 287.621 222.692C285.84 220.959 282.991 221 281.258 222.782L287.711 229.055ZM152.759 224.942C156.289 230.153 161.409 232.406 166.734 233.011C171.88 233.595 177.42 232.681 182.453 231.497C185.007 230.896 187.536 230.198 189.911 229.532C192.319 228.857 194.533 228.226 196.599 227.71C198.669 227.193 200.431 226.833 201.898 226.675C203.413 226.512 204.278 226.606 204.702 226.732L207.267 218.105C205.192 217.488 202.962 217.509 200.936 217.727C198.862 217.949 196.636 218.424 194.417 218.978C192.194 219.534 189.819 220.211 187.482 220.866C185.113 221.53 182.744 222.182 180.391 222.736C175.612 223.861 171.308 224.472 167.75 224.068C164.373 223.685 161.93 222.433 160.21 219.895L152.759 224.942ZM204.404 226.632C206.896 227.566 209.191 228.975 211.783 230.674C214.258 232.297 217.137 234.283 220.295 235.791C223.561 237.352 227.277 238.491 231.69 238.52C236.077 238.548 240.875 237.477 246.331 235.022L242.638 226.815C238.094 228.859 234.579 229.538 231.748 229.52C228.942 229.502 226.533 228.798 224.175 227.671C221.707 226.492 219.461 224.947 216.718 223.148C214.09 221.425 211.073 219.521 207.565 218.205L204.404 226.632ZM246.331 235.022C248.098 234.227 249.9 234.212 252.318 234.773C253.567 235.064 254.87 235.481 256.389 235.983C257.851 236.465 259.531 237.032 261.268 237.493C264.806 238.432 268.963 239.044 273.611 237.905C278.261 236.764 282.908 233.996 287.711 229.055L281.258 222.782C277.311 226.841 274.083 228.522 271.468 229.163C268.85 229.805 266.35 229.53 263.576 228.794C262.157 228.417 260.766 227.95 259.211 227.436C257.713 226.942 256.051 226.401 254.355 226.007C250.882 225.2 246.871 224.91 242.638 226.815L246.331 235.022Z" fill="black"/>
</svg>
