<svg width="435" height="222" viewBox="0 0 435 222" fill="none" xmlns="http://www.w3.org/2000/svg">
<path d="M427.5 69.5C427.5 103.259 398.002 131.5 360.5 131.5C322.998 131.5 293.5 103.259 293.5 69.5C293.5 35.7406 322.998 7.5 360.5 7.5C398.002 7.5 427.5 35.7406 427.5 69.5Z" stroke="black" stroke-width="15"/>
<path d="M141.5 69.5C141.5 103.259 112.002 131.5 74.5 131.5C36.9977 131.5 7.5 103.259 7.5 69.5C7.5 35.7406 36.9977 7.5 74.5 7.5C112.002 7.5 141.5 35.7406 141.5 69.5Z" stroke="black" stroke-width="15"/>
<path d="M159 111L172.5 86" stroke="black" stroke-width="4"/>
<path d="M159 111L172.5 86" stroke="#F76161" stroke-width="4" stroke-linecap="round"/>
<path d="M178 111L191.5 86" stroke="#F76161" stroke-width="4" stroke-linecap="round"/>
<path d="M201 111L214.5 86" stroke="#F76161" stroke-width="4" stroke-linecap="round"/>
<path d="M224 111L237.5 86" stroke="#F76161" stroke-width="4" stroke-linecap="round"/>
<path d="M247 111L260.5 86" stroke="#F76161" stroke-width="4" stroke-linecap="round"/>
<path d="M182 157.499C206.757 151.088 246 152.501 258.5 155.5" stroke="black" stroke-width="4"/>
<path d="M345 161C345 161 337.939 216.346 361 218C384.595 219.692 375.5 161 375.5 161" stroke="black" stroke-width="6" stroke-linecap="round"/>
</svg>
