<svg width="24" height="24" viewBox="0 0 24 24" fill="none" xmlns="http://www.w3.org/2000/svg">
<path d="M10.2043 5.66184C10.9362 4.16929 13.0638 4.1693 13.7957 5.66185L16.3301 10.8301L19.3978 15.6534C20.2789 17.0387 19.2077 18.8369 17.5699 18.7218L11.9999 18.3301L6.43008 18.7218C4.79231 18.8369 3.72109 17.0387 4.60218 15.6534L7.66982 10.8301L10.2043 5.66184Z" fill="#FFD200"/>
<path d="M11.9999 18.3301L7.66982 10.8301L16.3301 10.8301L11.9999 18.3301Z" fill="#FFD200"/>
<path d="M11.104 11.8309C11.4699 11.0846 12.5337 11.0846 12.8997 11.8309L13.2754 12.5971L13.7394 13.3267C14.18 14.0194 13.6444 14.9185 12.8255 14.8609L12.0018 14.803L11.1782 14.8609C10.3593 14.9185 9.82366 14.0194 10.2642 13.3267L10.7282 12.5971L11.104 11.8309Z" fill="#BFA630"/>
<path d="M12.0018 14.803L10.7282 12.5971L13.2754 12.5971L12.0018 14.803Z" fill="#BFA630"/>
</svg>
