<svg width="384" height="384" viewBox="0 0 384 384" fill="none" xmlns="http://www.w3.org/2000/svg">
<rect width="384" height="384" fill="white"/>
<path d="M218.33 243.456C213.268 249.595 205.569 256.741 196.8 264.496C192.136 266.903 183.452 266.581 179.592 263.854C171.759 257.065 163.818 249.898 158.684 243.166C158.671 272.475 150.5 303.5 142.5 320H237C221 297 218.132 248.185 218.33 243.456Z" fill="url(#paint0_linear_117_632)"/>
<path d="M158.685 243C158.685 243.055 158.685 243.111 158.684 243.166M218.351 243C218.351 243 218.343 243.156 218.33 243.456M218.33 243.456C213.268 249.595 205.569 256.741 196.8 264.496C192.136 266.903 183.452 266.581 179.592 263.854C171.759 257.065 163.818 249.898 158.684 243.166M218.33 243.456C218.132 248.185 221 297 237 320H142.5C150.5 303.5 158.671 272.475 158.684 243.166" stroke="#C43C4F" stroke-width="2"/>
<path d="M233.704 185.457C237.388 198.186 231.553 205.663 225.56 207.576C217.56 210.131 211.757 207.759 205.56 204.576C206.483 202.14 208.06 198.076 209.56 195.576C214.56 188.576 222.893 184.2 231.553 185.123C232.259 185.198 232.976 185.309 233.704 185.457Z" fill="#15700D"/>
<path fill-rule="evenodd" clip-rule="evenodd" d="M148.428 167.021C149.953 163.694 151.699 160.715 153.627 158.062C173.17 131.181 211.451 137.879 228.136 156.687C228.59 157.199 229.029 157.72 229.45 158.249C231.496 160.82 233.146 163.593 234.306 166.518C234.372 166.685 234.437 166.853 234.5 167.021C238.257 179.867 236.447 190.691 233.971 200.898C233.582 202.5 233.177 204.086 232.775 205.663C230.971 212.729 227.674 222.332 227.674 229.496C227.674 233.084 225.192 237.523 221.013 242.612C215.649 249.145 207.489 256.749 198.196 265C193.253 267.561 184.05 267.219 179.959 264.317C171.658 257.093 163.243 249.467 157.802 242.304C153.859 237.112 151.479 232.164 151.837 227.789C151.837 224.204 150.544 220.169 148.996 214.705C145.607 202.742 140.928 186.651 146.052 172.251C146.685 170.471 147.47 168.723 148.428 167.021ZM233.704 185.457C237.388 198.186 231.553 205.663 225.56 207.576C217.56 210.131 211.757 207.759 205.56 204.576C206.483 202.14 208.06 198.076 209.56 195.576C214.56 188.576 222.893 184.2 231.553 185.123C232.259 185.198 232.976 185.309 233.704 185.457ZM153 207C151.348 206.138 143.718 198.51 147.268 186.242C147.969 186.099 148.66 185.993 149.339 185.92C157.684 185.031 167 189.5 170.5 196.5C171.5 198.5 172.94 200.837 173.5 205C168 209 157.5 210 153 207Z" fill="url(#paint1_radial_117_632)"/>
<path d="M147.268 186.242C143.718 198.51 151.348 206.138 153 207C157.5 210 168 209 173.5 205C172.94 200.837 171.5 198.5 170.5 196.5C167 189.5 157.684 185.031 149.339 185.92C148.66 185.993 147.969 186.099 147.268 186.242Z" fill="#15700D"/>
<path d="M228.136 156.687C228.59 157.199 229.029 157.72 229.45 158.249C231.259 160.35 232.965 162.329 234.306 166.518C234.372 166.685 234.437 166.853 234.5 167.021C235.981 172.086 236.537 177.261 236.588 181.784C239.937 177.931 246.79 176.137 249.888 174.893C284.517 160.991 291.607 163.857 301.137 149.098C312.024 119.283 323.747 89.3012 312.191 85.4488C306.329 82.6013 279.7 93.3212 255.415 117.106C242.184 138.378 227.614 156.521 227.614 156.521C227.768 156.723 227.982 156.496 228.136 156.687Z" fill="url(#paint2_radial_117_632)"/>
<path d="M233.971 200.898C254.867 198.184 281.574 210.054 289.079 207.052C304.822 198.845 322.407 178.075 319.727 171.543C305.827 167.02 249.888 174.893 249.888 174.893C246.79 176.137 239.937 177.931 236.588 181.784C236.666 188.731 235.471 194.716 233.971 200.898Z" fill="url(#paint3_radial_117_632)"/>
<path d="M146.052 172.251C146.685 170.471 147.47 168.723 148.428 167.021C149.953 163.694 151.699 160.715 153.627 158.062C145.822 150.392 138.931 140.809 126.229 120.381C102.83 97.4579 77.1721 87.1262 71.5241 89.8706C60.3895 93.5835 71.6855 122.48 82.1746 151.215C91.3579 165.44 98.1891 162.678 131.554 176.075C134.54 177.274 140.538 179.778 143.766 183.491C144.969 176.075 143.826 179.994 146.052 172.251Z" fill="url(#paint4_radial_117_632)"/>
<path d="M93.7935 207.071C101.055 209.976 136.539 200.56 145.402 201.413C144.039 194.927 143.399 190.109 143.766 183.491C140.538 179.778 134.54 177.274 131.554 176.075C131.554 176.075 77.6564 168.488 64.2626 172.847C61.6806 179.143 78.6246 199.16 93.7935 207.071Z" fill="url(#paint5_radial_117_632)"/>
<path d="M148.428 167.021L149.3 167.511L149.32 167.475L149.337 167.437L148.428 167.021ZM234.5 167.021L235.46 166.74L235.449 166.704L235.436 166.669L234.5 167.021ZM198.196 265L198.656 265.888L198.767 265.831L198.86 265.748L198.196 265ZM179.959 264.317L179.303 265.072L179.34 265.104L179.381 265.133L179.959 264.317ZM151.837 227.789L152.833 227.87L152.837 227.83V227.789H151.837ZM227.614 156.521L226.834 155.895L226.344 156.505L226.818 157.127L227.614 156.521ZM255.415 117.106L254.716 116.391L254.63 116.476L254.566 116.578L255.415 117.106ZM312.191 85.4488L311.754 86.3483L311.813 86.3768L311.875 86.3975L312.191 85.4488ZM301.137 149.098L301.977 149.64L302.038 149.546L302.077 149.441L301.137 149.098ZM205.56 204.576L204.625 204.222L204.309 205.058L205.104 205.466L205.56 204.576ZM233.704 185.457L234.664 185.179L234.496 184.597L233.902 184.476L233.704 185.457ZM225.56 207.576L225.865 208.529L225.56 207.576ZM233.643 201.357L232.678 201.096L232.285 202.551L233.778 202.348L233.643 201.357ZM289.079 207.052L289.45 207.981L289.497 207.962L289.541 207.939L289.079 207.052ZM319.727 171.543L320.653 171.163L320.477 170.735L320.037 170.592L319.727 171.543ZM209.56 195.576L208.747 194.995L208.723 195.028L208.703 195.062L209.56 195.576ZM231.553 185.123L231.659 184.129L231.553 185.123ZM148.996 214.705L149.958 214.432L149.958 214.432L148.996 214.705ZM232.775 205.663L233.744 205.91L233.744 205.91L232.775 205.663ZM153.651 158.569L154.485 159.121L154.941 158.433L154.351 157.855L153.651 158.569ZM126.229 120.381L127.078 119.853L127.015 119.751L126.929 119.667L126.229 120.381ZM71.5241 89.8706L71.8404 90.8193L71.9024 90.7986L71.9611 90.77L71.5241 89.8706ZM82.1746 151.215L81.2352 151.558L81.2737 151.663L81.3345 151.757L82.1746 151.215ZM173.5 205L174.088 205.809L174.571 205.458L174.491 204.867L173.5 205ZM147.268 186.242L147.069 185.261L146.475 185.382L146.307 185.964L147.268 186.242ZM153 207L153.555 206.168L153.51 206.138L153.463 206.113L153 207ZM145.402 201.413L145.306 202.409L146.661 202.539L146.381 201.208L145.402 201.413ZM93.7935 207.071L93.3311 207.957L93.3755 207.98L93.422 207.999L93.7935 207.071ZM64.2626 172.847L63.9531 171.896L63.513 172.039L63.3374 172.467L64.2626 172.847ZM149.339 185.92L149.445 186.915L149.339 185.92ZM197.736 264.112C195.471 265.286 192.125 265.832 188.795 265.708C185.453 265.583 182.355 264.791 180.538 263.502L179.381 265.133C181.654 266.745 185.203 267.575 188.721 267.706C192.252 267.838 195.978 267.275 198.656 265.888L197.736 264.112ZM227.614 156.521C228.393 157.147 228.393 157.147 228.393 157.147C228.394 157.147 228.394 157.146 228.394 157.146C228.395 157.145 228.395 157.144 228.396 157.143C228.398 157.141 228.401 157.138 228.404 157.133C228.412 157.124 228.423 157.11 228.437 157.093C228.465 157.057 228.507 157.004 228.563 156.935C228.674 156.796 228.837 156.589 229.051 156.319C229.477 155.779 230.1 154.985 230.888 153.965C232.465 151.927 234.705 148.988 237.358 145.383C242.664 138.176 249.631 128.299 256.265 117.634L254.566 116.578C247.969 127.185 241.035 137.016 235.748 144.198C233.105 147.788 230.875 150.714 229.306 152.742C228.522 153.756 227.903 154.545 227.48 155.08C227.269 155.348 227.107 155.552 226.998 155.689C226.944 155.757 226.902 155.809 226.875 155.844C226.861 155.861 226.851 155.874 226.844 155.882C226.84 155.886 226.838 155.89 226.836 155.892C226.835 155.893 226.835 155.894 226.834 155.894C226.834 155.894 226.834 155.894 226.834 155.895C226.834 155.895 226.834 155.895 227.614 156.521ZM256.115 117.82C268.184 106 280.829 97.433 291.165 92.1818C296.335 89.5551 300.904 87.7693 304.517 86.8161C306.325 86.3393 307.869 86.0772 309.115 86.0147C310.382 85.9511 311.242 86.0996 311.754 86.3483L312.628 84.5493C311.675 84.0861 310.42 83.9467 309.014 84.0172C307.587 84.0888 305.9 84.383 304.007 84.8823C300.219 85.8815 295.515 87.7283 290.259 90.3987C279.743 95.7418 266.931 104.427 254.716 116.391L256.115 117.82ZM311.875 86.3975C314.222 87.18 315.536 89.2863 315.874 92.9193C316.214 96.5668 315.526 101.475 314.108 107.301C311.278 118.936 305.653 133.816 300.198 148.755L302.077 149.441C307.508 134.566 313.188 119.547 316.052 107.774C317.482 101.896 318.238 96.7231 317.866 92.7337C317.493 88.7299 315.938 85.6438 312.507 84.5001L311.875 86.3975ZM232.743 185.735C236.303 198.033 230.649 204.902 225.256 206.624L225.865 208.529C232.458 206.424 238.473 198.339 234.664 185.179L232.743 185.735ZM225.256 206.624C217.651 209.052 212.159 206.841 206.017 203.687L205.104 205.466C211.355 208.677 217.469 211.21 225.865 208.529L225.256 206.624ZM289.541 207.939C297.555 203.761 305.983 196.423 312.071 189.32C315.117 185.766 317.609 182.234 319.175 179.145C319.958 177.601 320.525 176.137 320.804 174.814C321.081 173.502 321.093 172.237 320.653 171.163L318.802 171.922C319.032 172.481 319.081 173.294 318.847 174.401C318.616 175.496 318.126 176.79 317.391 178.241C315.921 181.139 313.536 184.537 310.552 188.019C304.581 194.986 296.345 202.136 288.616 206.165L289.541 207.939ZM300.297 148.555C297.954 152.184 295.793 154.68 293.356 156.617C290.918 158.556 288.156 159.972 284.559 161.386C280.943 162.807 276.556 164.199 270.845 166.126C265.151 168.046 258.196 170.48 249.516 173.965L250.261 175.821C258.895 172.355 265.812 169.934 271.484 168.021C277.14 166.113 281.614 164.693 285.29 163.248C288.985 161.796 291.947 160.292 294.601 158.183C297.256 156.072 299.555 153.391 301.977 149.64L300.297 148.555ZM249.516 173.965C248.765 174.266 247.79 174.599 246.638 175.01C245.502 175.416 244.226 175.886 242.936 176.442C240.381 177.543 237.66 179.027 235.833 181.127L237.342 182.44C238.865 180.688 241.244 179.349 243.728 178.278C244.957 177.748 246.185 177.296 247.31 176.894C248.419 176.499 249.462 176.141 250.261 175.821L249.516 173.965ZM320.037 170.592C316.383 169.403 310.123 169.056 302.937 169.158C295.702 169.261 287.379 169.823 279.506 170.526C271.631 171.228 264.193 172.072 258.725 172.741C255.99 173.075 253.747 173.365 252.188 173.572C251.408 173.675 250.799 173.758 250.384 173.815C250.177 173.843 250.019 173.865 249.912 173.88C249.858 173.887 249.818 173.893 249.791 173.897C249.777 173.898 249.767 173.9 249.76 173.901C249.756 173.901 249.754 173.902 249.752 173.902C249.751 173.902 249.75 173.902 249.75 173.902C249.749 173.902 249.749 173.902 249.888 174.893C250.028 175.883 250.028 175.883 250.028 175.883C250.029 175.883 250.029 175.883 250.03 175.882C250.032 175.882 250.034 175.882 250.037 175.881C250.044 175.881 250.054 175.879 250.067 175.877C250.094 175.874 250.134 175.868 250.187 175.861C250.292 175.846 250.45 175.824 250.656 175.796C251.067 175.74 251.674 175.657 252.451 175.554C254.004 175.348 256.24 175.059 258.967 174.726C264.422 174.059 271.837 173.218 279.684 172.518C287.534 171.817 295.801 171.26 302.965 171.158C310.177 171.056 316.121 171.421 319.418 172.494L320.037 170.592ZM231.447 186.118C232.121 186.189 232.807 186.295 233.505 186.437L233.902 184.476C233.144 184.323 232.397 184.207 231.659 184.129L231.447 186.118ZM206.496 204.93C207.426 202.474 208.973 198.5 210.418 196.091L208.703 195.062C207.148 197.653 205.54 201.806 204.625 204.222L206.496 204.93ZM210.374 196.158C215.195 189.409 223.194 185.238 231.447 186.118L231.659 184.129C222.592 183.162 213.926 187.744 208.747 194.995L210.374 196.158ZM148.033 214.977C149.606 220.526 150.837 224.382 150.837 227.789H152.837C152.837 224.026 151.482 219.812 149.958 214.432L148.033 214.977ZM228.674 229.496C228.674 226.043 229.472 221.951 230.518 217.786C231.039 215.712 231.617 213.637 232.179 211.631C232.741 209.629 233.289 207.691 233.744 205.91L231.806 205.415C231.358 207.168 230.818 209.079 230.254 211.09C229.691 213.096 229.107 215.195 228.578 217.299C227.525 221.493 226.674 225.784 226.674 229.496H228.674ZM126.929 119.667C115.156 108.134 102.809 99.7603 92.673 94.6091C87.6073 92.0345 83.0717 90.2535 79.4192 89.2896C77.5939 88.8079 75.9651 88.5239 74.5867 88.4547C73.2297 88.3866 72.0138 88.5208 71.087 88.9712L71.9611 90.77C72.4463 90.5343 73.2678 90.391 74.4864 90.4522C75.6836 90.5123 77.1688 90.7642 78.9089 91.2234C82.3869 92.1412 86.7872 93.8612 91.7669 96.392C101.722 101.451 113.903 109.706 125.529 121.096L126.929 119.667ZM71.2078 88.922C67.8824 90.0308 66.3803 93.023 66.0201 96.8884C65.6613 100.739 66.3908 105.73 67.7688 111.396C70.5289 122.745 76.0023 137.222 81.2352 151.558L83.114 150.872C77.8577 136.473 72.4386 122.134 69.7121 110.923C68.3467 105.309 67.6845 100.583 68.0115 97.0739C68.3371 93.5791 69.5984 91.5668 71.8404 90.8193L71.2078 88.922ZM146.307 185.964C144.457 192.357 145.516 197.581 147.278 201.324C148.156 203.189 149.206 204.683 150.153 205.773C151.076 206.837 151.96 207.585 152.537 207.887L153.463 206.113C153.213 205.983 152.524 205.455 151.663 204.463C150.826 203.497 149.88 202.156 149.088 200.472C147.509 197.119 146.528 192.395 148.228 186.519L146.307 185.964ZM152.445 207.832C154.98 209.522 159.011 210.004 162.971 209.62C166.964 209.234 171.152 207.944 174.088 205.809L172.912 204.191C170.348 206.056 166.536 207.266 162.779 207.63C158.989 207.996 155.52 207.478 153.555 206.168L152.445 207.832ZM145.498 200.418C143.136 200.191 139.129 200.644 134.469 201.357C129.77 202.077 124.255 203.087 118.827 204.026C113.383 204.968 108.021 205.841 103.572 206.298C101.348 206.526 99.3741 206.648 97.7457 206.627C96.0909 206.605 94.8952 206.434 94.165 206.142L93.422 207.999C94.5073 208.433 96.0089 208.604 97.7192 208.627C99.456 208.65 101.515 208.52 103.777 208.287C108.301 207.822 113.725 206.939 119.168 205.997C124.626 205.052 130.098 204.05 134.772 203.334C139.484 202.613 143.237 202.21 145.306 202.409L145.498 200.418ZM94.2559 206.184C86.8142 202.303 78.8821 195.415 73.1309 188.703C70.2573 185.349 67.9606 182.076 66.5464 179.286C65.8389 177.89 65.3683 176.646 65.1465 175.594C64.9223 174.531 64.9707 173.756 65.1878 173.226L63.3374 172.467C62.9089 173.512 62.9221 174.739 63.1896 176.007C63.4594 177.286 64.0075 178.7 64.7624 180.19C66.273 183.171 68.6763 186.578 71.6121 190.004C77.4796 196.852 85.604 203.928 93.3311 207.957L94.2559 206.184ZM81.3345 151.757C83.6698 155.375 85.8874 157.961 88.45 159.999C91.0107 162.035 93.8688 163.486 97.4304 164.886C100.974 166.279 105.286 167.649 110.735 169.487C116.2 171.33 122.864 173.663 131.182 177.003L131.927 175.147C123.562 171.789 116.861 169.443 111.374 167.592C105.87 165.735 101.645 164.394 98.1621 163.025C94.6973 161.662 92.0403 160.299 89.6948 158.434C87.351 156.57 85.271 154.167 83.0147 150.673L81.3345 151.757ZM131.182 177.003C132.668 177.6 134.869 178.508 137.091 179.718C139.325 180.935 141.511 182.421 143.011 184.147L144.52 182.834C142.792 180.847 140.366 179.225 138.048 177.962C135.718 176.693 133.427 175.75 131.927 175.147L131.182 177.003ZM64.572 173.798C67.742 172.766 73.4639 172.414 80.4133 172.512C87.3141 172.61 95.2792 173.148 102.842 173.823C110.403 174.497 117.547 175.308 122.802 175.951C125.43 176.272 127.584 176.551 129.081 176.749C129.829 176.849 130.413 176.928 130.81 176.982C131.009 177.009 131.16 177.03 131.262 177.044C131.313 177.051 131.351 177.057 131.377 177.06C131.39 177.062 131.399 177.063 131.406 177.064C131.409 177.065 131.411 177.065 131.413 177.065C131.414 177.065 131.414 177.066 131.415 177.066C131.415 177.066 131.415 177.066 131.554 176.075C131.694 175.085 131.694 175.085 131.693 175.085C131.693 175.085 131.692 175.085 131.691 175.085C131.689 175.085 131.687 175.084 131.684 175.084C131.677 175.083 131.667 175.081 131.654 175.08C131.628 175.076 131.588 175.07 131.537 175.063C131.434 175.049 131.281 175.028 131.082 175.001C130.682 174.946 130.095 174.866 129.344 174.767C127.841 174.567 125.68 174.288 123.045 173.965C117.776 173.321 110.609 172.508 103.02 171.831C95.4345 171.154 87.4137 170.611 80.4416 170.513C73.5181 170.414 67.48 170.748 63.9531 171.896L64.572 173.798ZM149.233 184.926C148.522 185.002 147.8 185.113 147.069 185.261L147.466 187.222C148.138 187.085 148.797 186.984 149.445 186.915L149.233 184.926ZM174.491 204.867C173.904 200.507 172.375 198.013 171.394 196.053L169.606 196.947C170.625 198.987 171.975 201.168 172.509 205.133L174.491 204.867ZM171.394 196.053C167.678 188.621 157.923 183.999 149.233 184.926L149.445 186.915C157.444 186.062 166.322 190.379 169.606 196.947L171.394 196.053ZM235.589 181.725C235.125 189.692 234.153 195.636 232.678 201.096L234.608 201.618C236.125 196.004 237.115 189.921 237.586 181.842L235.589 181.725ZM227.388 157.351C227.831 157.85 228.257 158.357 228.667 158.872L230.232 157.626C229.8 157.083 229.35 156.548 228.884 156.024L227.388 157.351ZM228.692 158.902C230.474 160.971 232.074 162.827 233.354 166.823L235.258 166.213C233.855 161.831 232.044 159.729 230.208 157.597L228.692 158.902ZM233.376 166.887C233.44 167.048 233.503 167.21 233.564 167.372L235.436 166.669C235.371 166.495 235.304 166.322 235.236 166.149L233.376 166.887ZM233.54 167.301C234.99 172.26 235.538 177.34 235.588 181.795L237.587 181.772C237.536 177.181 236.972 171.913 235.46 166.74L233.54 167.301ZM226.818 157.127C226.9 157.235 227.004 157.336 227.132 157.418C227.26 157.501 227.392 157.552 227.516 157.58C227.635 157.607 227.738 157.612 227.81 157.612C227.878 157.612 227.938 157.606 227.958 157.605C227.99 157.602 227.978 157.603 227.963 157.604C227.942 157.604 227.888 157.604 227.817 157.59C227.741 157.575 227.653 157.545 227.563 157.492C227.473 157.438 227.405 157.374 227.357 157.314L228.916 156.061C228.829 155.953 228.721 155.854 228.589 155.775C228.458 155.696 228.326 155.652 228.206 155.628C228.091 155.605 227.992 155.603 227.926 155.604C227.864 155.605 227.806 155.61 227.793 155.611C227.766 155.614 227.78 155.612 227.803 155.612C227.829 155.612 227.887 155.613 227.962 155.63C228.041 155.649 228.13 155.682 228.216 155.738C228.303 155.794 228.365 155.858 228.409 155.914L226.818 157.127ZM227.357 157.314C227.81 157.878 228.26 158.4 228.692 158.902L230.208 157.597C229.773 157.092 229.345 156.594 228.916 156.061L227.357 157.314ZM233.354 166.823C234.357 169.955 235.112 174.863 235.59 181.852L237.585 181.715C237.105 174.691 236.338 169.584 235.258 166.213L233.354 166.823ZM228.667 158.872C230.659 161.374 232.256 164.063 233.376 166.887L235.236 166.149C234.036 163.124 232.333 160.267 230.232 157.626L228.667 158.872ZM234.1 201.89C244.352 200.558 256.09 202.804 266.332 205.06C271.417 206.18 276.157 207.308 280.076 207.962C282.04 208.29 283.834 208.505 285.392 208.538C286.936 208.571 288.33 208.429 289.45 207.981L288.707 206.124C287.951 206.426 286.869 206.569 285.435 206.539C284.014 206.508 282.327 206.31 280.405 205.989C276.553 205.346 271.903 204.239 266.762 203.107C256.549 200.857 244.487 198.524 233.842 199.906L234.1 201.89ZM235.588 181.795C235.664 188.616 234.493 194.505 232.999 200.662L234.943 201.134C236.449 194.927 237.667 188.845 237.587 181.772L235.588 181.795ZM233.744 205.91C234.146 204.334 234.552 202.742 234.943 201.134L232.999 200.662C232.612 202.257 232.209 203.838 231.806 205.415L233.744 205.91ZM234.943 201.134C237.432 190.872 239.291 179.84 235.46 166.74L233.54 167.301C237.222 179.894 235.462 190.51 232.999 200.662L234.943 201.134ZM233.778 202.348C233.97 202.322 234.114 202.248 234.201 202.192C234.289 202.135 234.354 202.075 234.394 202.033C234.473 201.953 234.528 201.873 234.556 201.829C234.614 201.741 234.666 201.641 234.689 201.598C234.726 201.529 234.733 201.518 234.731 201.521C234.73 201.522 234.702 201.566 234.648 201.621C234.62 201.65 234.568 201.699 234.49 201.749C234.414 201.797 234.281 201.866 234.1 201.89L233.842 199.906C233.649 199.931 233.505 200.005 233.417 200.061C233.327 200.118 233.262 200.178 233.221 200.22C233.142 200.301 233.087 200.381 233.058 200.425C233 200.513 232.948 200.613 232.925 200.657C232.888 200.726 232.881 200.737 232.882 200.735C232.883 200.734 232.91 200.69 232.964 200.636C232.991 200.607 233.044 200.558 233.12 200.509C233.195 200.461 233.327 200.391 233.508 200.366L233.778 202.348ZM146.994 172.586C147.609 170.857 148.371 169.162 149.3 167.511L147.556 166.53C146.569 168.285 145.761 170.084 145.11 171.916L146.994 172.586ZM149.337 167.437C150.835 164.168 152.548 161.247 154.436 158.651L152.818 157.474C150.849 160.183 149.07 163.22 147.519 166.604L149.337 167.437ZM154.328 157.349C146.616 149.77 139.779 140.279 127.078 119.853L125.38 120.909C138.084 141.34 145.028 151.014 152.926 158.776L154.328 157.349ZM144.753 183.651C145.056 181.785 145.212 180.627 145.31 179.816C145.412 178.978 145.445 178.585 145.513 178.148C145.644 177.312 145.889 176.437 147.013 172.527L145.091 171.974C143.989 175.808 143.693 176.845 143.537 177.84C143.463 178.318 143.417 178.819 143.325 179.574C143.23 180.356 143.078 181.488 142.779 183.33L144.753 183.651ZM154.436 158.651C163.976 145.528 178.083 140.588 191.906 141.24C205.762 141.894 219.241 148.167 227.388 157.351L228.884 156.024C220.347 146.399 206.343 139.919 192.001 139.242C177.626 138.564 162.821 143.716 152.818 157.474L154.436 158.651ZM154.351 157.855C154.47 157.972 154.531 158.091 154.557 158.147C154.586 158.211 154.603 158.265 154.611 158.296C154.628 158.356 154.634 158.403 154.635 158.417C154.639 158.449 154.639 158.467 154.639 158.452C154.638 158.429 154.638 158.391 154.639 158.324C154.639 158.271 154.64 158.19 154.638 158.12C154.637 158.087 154.635 158.03 154.627 157.968C154.624 157.938 154.615 157.879 154.596 157.809C154.586 157.774 154.569 157.716 154.538 157.649C154.511 157.589 154.449 157.468 154.328 157.349L152.926 158.776C152.807 158.659 152.746 158.54 152.721 158.484C152.691 158.42 152.675 158.366 152.667 158.336C152.65 158.275 152.644 158.229 152.642 158.215C152.638 158.182 152.639 158.165 152.639 158.179C152.64 158.203 152.64 158.241 152.639 158.307C152.639 158.361 152.638 158.442 152.64 158.512C152.641 158.545 152.643 158.602 152.651 158.664C152.654 158.693 152.663 158.753 152.682 158.823C152.692 158.859 152.709 158.916 152.74 158.984C152.768 159.043 152.83 159.165 152.951 159.283L154.351 157.855ZM152.817 158.017C148.982 163.81 146.628 168.12 145.123 171.879L146.98 172.622C148.414 169.039 150.688 164.856 154.485 159.121L152.817 158.017ZM145.11 171.916C139.86 186.671 144.665 203.088 148.033 214.977L149.958 214.432C146.548 202.396 141.996 186.632 146.994 172.586L145.11 171.916ZM142.767 183.435C142.394 190.17 143.049 195.081 144.423 201.619L146.381 201.208C145.028 194.773 144.404 190.048 144.764 183.546L142.767 183.435ZM220.24 241.977C214.933 248.441 206.83 255.997 197.532 264.252L198.86 265.748C208.149 257.5 216.365 249.848 221.786 243.246L220.24 241.977ZM180.616 263.563C172.305 256.33 163.967 248.768 158.598 241.699L157.006 242.909C162.518 250.166 171.011 257.855 179.303 265.072L180.616 263.563ZM156.742 242.551C156.742 242.567 156.742 242.611 156.748 242.664C156.751 242.691 156.757 242.742 156.773 242.805C156.782 242.837 156.796 242.885 156.818 242.939C156.84 242.991 156.879 243.075 156.949 243.166C157.018 243.256 157.142 243.385 157.338 243.472C157.438 243.516 157.548 243.545 157.664 243.554C157.779 243.563 157.887 243.552 157.983 243.528C158.168 243.482 158.298 243.394 158.372 243.334C158.448 243.273 158.5 243.212 158.531 243.173C158.563 243.132 158.586 243.095 158.602 243.069C158.618 243.043 158.63 243.019 158.639 243.001C158.656 242.966 158.669 242.937 158.676 242.919C158.69 242.883 158.699 242.853 158.703 242.839C158.708 242.822 158.712 242.808 158.715 242.798C158.72 242.779 158.724 242.761 158.726 242.75C158.736 242.708 158.747 242.653 158.753 242.621C158.757 242.601 158.76 242.585 158.763 242.57C158.764 242.563 158.766 242.557 158.767 242.553C158.767 242.548 158.768 242.546 158.768 242.546C158.768 242.547 158.768 242.548 158.767 242.55C158.766 242.553 158.765 242.557 158.764 242.563C158.762 242.568 158.76 242.579 158.756 242.592C158.752 242.603 158.744 242.63 158.731 242.663C158.724 242.68 158.713 242.709 158.696 242.743C158.687 242.761 158.675 242.784 158.659 242.81C158.644 242.836 158.62 242.872 158.588 242.913C158.558 242.952 158.506 243.013 158.43 243.074C158.357 243.134 158.226 243.222 158.04 243.268C157.944 243.292 157.836 243.303 157.72 243.294C157.604 243.285 157.494 243.255 157.395 243.211C157.199 243.124 157.075 242.994 157.006 242.904C156.938 242.814 156.898 242.73 156.877 242.679C156.854 242.624 156.841 242.578 156.833 242.546C156.817 242.483 156.81 242.433 156.808 242.408C156.802 242.356 156.802 242.316 156.802 242.303L158.802 242.304C158.802 242.287 158.802 242.244 158.796 242.191C158.793 242.165 158.787 242.113 158.77 242.051C158.762 242.018 158.749 241.971 158.726 241.916C158.705 241.865 158.665 241.781 158.596 241.691C158.527 241.6 158.404 241.471 158.207 241.383C158.108 241.339 157.998 241.31 157.882 241.3C157.766 241.291 157.658 241.303 157.562 241.326C157.376 241.372 157.245 241.461 157.171 241.52C157.095 241.582 157.043 241.643 157.013 241.682C156.98 241.723 156.957 241.759 156.942 241.785C156.926 241.812 156.913 241.836 156.904 241.854C156.887 241.889 156.875 241.918 156.868 241.936C156.854 241.972 156.845 242.001 156.84 242.016C156.835 242.032 156.832 242.046 156.829 242.056C156.824 242.076 156.82 242.093 156.817 242.105C156.808 242.147 156.797 242.202 156.791 242.233C156.787 242.253 156.784 242.27 156.781 242.284C156.779 242.291 156.778 242.297 156.777 242.301C156.776 242.306 156.776 242.308 156.776 242.308C156.776 242.308 156.776 242.306 156.777 242.304C156.777 242.302 156.778 242.297 156.78 242.291C156.781 242.286 156.784 242.275 156.788 242.262C156.791 242.251 156.8 242.224 156.813 242.191C156.819 242.173 156.831 242.145 156.848 242.111C156.857 242.093 156.869 242.07 156.885 242.043C156.9 242.018 156.924 241.981 156.956 241.94C156.986 241.902 157.038 241.841 157.114 241.78C157.187 241.72 157.317 241.632 157.503 241.586C157.598 241.563 157.706 241.551 157.821 241.56C157.937 241.569 158.047 241.598 158.146 241.642C158.343 241.729 158.467 241.858 158.536 241.948C158.605 242.039 158.645 242.122 158.666 242.174C158.689 242.229 158.702 242.276 158.711 242.308C158.727 242.37 158.733 242.42 158.736 242.446C158.741 242.497 158.742 242.538 158.742 242.551H156.742ZM158.598 241.699C154.684 236.545 152.507 231.856 152.833 227.87L150.84 227.707C150.45 232.473 153.034 237.68 157.006 242.909L158.598 241.699ZM222.012 242.653C222.015 242.586 222.021 242.451 222.002 242.324C221.998 242.291 221.983 242.196 221.938 242.084C221.916 242.027 221.867 241.92 221.773 241.809C221.675 241.693 221.487 241.526 221.196 241.47C220.597 241.355 220.254 241.79 220.23 241.82C220.147 241.921 220.104 242.015 220.09 242.044C220.038 242.158 220.012 242.274 220.011 242.279C220.006 242.299 220.002 242.316 219.999 242.328C219.998 242.335 219.997 242.34 219.996 242.344C219.996 242.346 219.995 242.348 219.995 242.35C219.995 242.35 219.995 242.351 219.995 242.352C219.995 242.352 219.994 242.352 219.994 242.353C219.994 242.353 219.994 242.353 219.994 242.353C219.994 242.353 219.994 242.353 219.994 242.353C219.994 242.353 219.994 242.353 220.975 242.551C221.955 242.748 221.955 242.748 221.955 242.748C221.955 242.748 221.955 242.748 221.955 242.748C221.955 242.748 221.955 242.749 221.955 242.749C221.955 242.749 221.955 242.749 221.955 242.749C221.955 242.75 221.955 242.75 221.954 242.75C221.954 242.751 221.954 242.751 221.954 242.752C221.954 242.752 221.954 242.752 221.954 242.752C221.954 242.751 221.954 242.751 221.954 242.751C221.954 242.752 221.954 242.753 221.953 242.756C221.953 242.758 221.951 242.763 221.949 242.769C221.949 242.771 221.935 242.818 221.907 242.879C221.897 242.902 221.856 242.991 221.776 243.089C221.736 243.137 221.651 243.233 221.512 243.314C221.363 243.402 221.116 243.492 220.818 243.434C220.528 243.378 220.341 243.213 220.244 243.098C220.151 242.988 220.104 242.882 220.082 242.829C220.039 242.722 220.026 242.634 220.023 242.611C220.018 242.576 220.017 242.551 220.016 242.541C220.016 242.535 220.016 242.53 220.015 242.528C220.015 242.527 220.015 242.526 220.015 242.525C220.015 242.524 220.015 242.524 220.015 242.524C220.015 242.524 220.015 242.525 220.015 242.527C220.015 242.529 220.015 242.532 220.015 242.536C220.015 242.544 220.015 242.555 220.014 242.57L222.012 242.653ZM226.674 229.496C226.674 231.068 226.127 232.911 225.024 235.029C223.924 237.14 222.305 239.463 220.24 241.977L221.786 243.246C223.9 240.672 225.611 238.231 226.798 235.953C227.98 233.682 228.674 231.512 228.674 229.496H226.674Z" fill="#B63849"/>
<ellipse cx="190" cy="249" rx="16" ry="13" fill="#F492A0"/>
<path d="M182.361 250.314C181.682 249.942 182.089 249.222 182.863 249.257C186.301 249.416 187.989 248.797 189.707 247.591C190.156 247.276 190.775 247.353 191.22 247.672C193.043 248.978 196.276 249.167 198.199 249.315C198.892 249.369 199.07 250.002 198.434 250.284C194.91 251.845 185.853 252.229 182.361 250.314Z" fill="#2D2D2D"/>
<path d="M211.601 197.47C214.157 209.76 236.144 205.339 231.542 186.563C222.882 185.64 215.009 191.001 211.601 197.47Z" fill="#2C9723" stroke="#2C9723" stroke-width="3"/>
<path d="M212.793 195.61C221.145 207.729 234.098 195.78 227.28 186.563C219.611 186.904 214.838 192.708 212.793 195.61Z" fill="#61D758"/>
<path d="M212.793 195.61L211.567 194.746L210.965 195.6L211.558 196.461L212.793 195.61ZM227.28 186.563L228.486 185.671L228.011 185.029L227.214 185.064L227.28 186.563ZM211.558 196.461C213.815 199.737 216.502 201.547 219.255 202.078C222.002 202.608 224.62 201.822 226.637 200.279C230.646 197.211 232.433 191.008 228.486 185.671L226.074 187.455C228.945 191.336 227.664 195.715 224.814 197.896C223.4 198.978 221.64 199.483 219.823 199.132C218.011 198.783 215.947 197.543 214.028 194.759L211.558 196.461ZM214.019 196.474C216.028 193.623 220.432 188.369 227.347 188.062L227.214 185.064C218.789 185.439 213.648 191.793 211.567 194.746L214.019 196.474Z" fill="#61D758"/>
<ellipse rx="2.89769" ry="1.19477" transform="matrix(0.974296 -0.225271 0.224632 0.974444 228.327 188.209)" fill="#D2F4D0" fill-opacity="0.76"/>
<path d="M177.513 225.482C177.513 236.065 179.217 236.236 189.614 240.844C202.908 235.894 203.079 232.822 201.715 223.945C199.499 229.749 191.83 232.48 189.955 234.529C187.057 232.44 182.285 233.164 177.513 225.482Z" fill="#2D2D2D"/>
<path d="M177.513 225.482L178.787 224.69L176.013 220.225L176.013 225.482L177.513 225.482ZM189.614 240.844L189.006 242.216L189.565 242.463L190.137 242.25L189.614 240.844ZM201.715 223.945L203.198 223.717L202.337 218.111L200.314 223.41L201.715 223.945ZM189.955 234.529L189.078 235.745L190.16 236.526L191.061 235.541L189.955 234.529ZM176.013 225.482C176.013 230.723 176.394 233.981 178.543 236.4C179.591 237.579 180.974 238.464 182.654 239.323C184.325 240.178 186.444 241.08 189.006 242.216L190.222 239.473C187.585 238.304 185.593 237.457 184.02 236.652C182.456 235.852 181.464 235.17 180.786 234.407C179.484 232.942 179.013 230.824 179.013 225.482L176.013 225.482ZM190.137 242.25C196.749 239.788 200.603 237.641 202.439 234.652C204.309 231.609 203.861 228.039 203.198 223.717L200.232 224.173C200.932 228.728 201.081 231.133 199.883 233.082C198.651 235.087 195.774 236.95 189.09 239.439L190.137 242.25ZM200.314 223.41C199.376 225.866 197.231 227.783 194.859 229.408C193.68 230.216 192.53 230.898 191.478 231.554C190.5 232.164 189.481 232.825 188.848 233.516L191.061 235.541C191.366 235.208 192.009 234.759 193.066 234.1C194.048 233.487 195.305 232.739 196.555 231.883C199.041 230.179 201.838 227.828 203.116 224.48L200.314 223.41ZM190.832 233.312C189.929 232.661 188.918 232.257 187.983 231.908C187.006 231.545 186.083 231.233 185.09 230.752C183.192 229.835 181.022 228.288 178.787 224.69L176.239 226.273C178.776 230.357 181.378 232.29 183.784 233.453C184.942 234.013 186.054 234.392 186.936 234.72C187.859 235.064 188.532 235.352 189.078 235.745L190.832 233.312Z" fill="#2D2D2D"/>
<ellipse cx="217.225" cy="199.536" rx="3.23834" ry="2.9018" fill="white" fill-opacity="0.46"/>
<path d="M168.309 197.778C165.852 209.724 144.722 205.427 149.144 187.176C157.467 186.279 165.033 191.49 168.309 197.778Z" fill="#2C9723" stroke="#2C9723" stroke-width="3"/>
<path d="M167.286 196.129C159.302 207.8 146.917 196.293 153.435 187.417C160.768 187.745 165.331 193.334 167.286 196.129Z" fill="#61D758"/>
<path d="M167.286 196.129L168.515 195.269L169.11 196.119L168.524 196.976L167.286 196.129ZM153.435 187.417L152.226 186.529L152.701 185.882L153.503 185.918L153.435 187.417ZM168.524 196.976C166.36 200.139 163.778 201.896 161.123 202.412C158.472 202.927 155.948 202.163 154.007 200.666C150.149 197.694 148.436 191.691 152.226 186.529L154.644 188.304C151.917 192.019 153.136 196.208 155.838 198.29C157.176 199.321 158.838 199.8 160.551 199.467C162.26 199.135 164.22 197.954 166.048 195.282L168.524 196.976ZM166.057 196.989C164.136 194.243 159.942 189.21 153.368 188.915L153.503 185.918C161.595 186.281 166.526 192.426 168.515 195.269L166.057 196.989Z" fill="#61D758"/>
<ellipse rx="2.792" ry="1.15119" transform="matrix(-0.974296 -0.22527 -0.224633 0.974443 152.329 188.883)" fill="#D2F4D0" fill-opacity="0.76"/>
<ellipse rx="3.23835" ry="2.7311" transform="matrix(-1 0 0 1 163.025 199.706)" fill="white" fill-opacity="0.46"/>
<path d="M165.071 155.145C174.786 148.035 193.704 143.026 217.736 155.145C222.795 157.696 227.167 161.901 229.156 168.459C187.739 139.964 190.466 190.308 190.466 190.308C190.466 190.308 190.466 147.826 154.333 165.899C156.834 160.514 160.283 158.649 165.071 155.145Z" fill="#65E080"/>
<path d="M189.446 220.252C184.671 219.894 181.409 214.63 181.388 209.738C181.366 204.845 189.949 180.094 189.949 180.094C189.949 180.094 198.297 203.751 197.587 210.918C197.224 214.585 193.707 220.146 189.446 220.252Z" fill="#65E080"/>
<path d="M70.1357 92.5107C79.3395 86.3654 100.474 104.118 100.474 104.118C87.5204 107.361 78.3167 113.165 76.2715 127.844C76.2715 127.844 64.5112 96.266 70.1357 92.5107Z" fill="#65E080"/>
<path d="M69.5246 179.415C71.2207 189.296 91.031 202.549 91.031 202.549C85.9437 190.243 84.0769 180.463 90.3501 174.324C90.3501 174.324 68.488 173.377 69.5246 179.415Z" fill="#65E080"/>
<path d="M312.082 89.7945C319.683 97.8432 305.776 121.701 305.776 121.701C300.399 109.461 293.135 101.355 278.342 101.812C278.342 101.812 307.437 84.8758 312.082 89.7945Z" fill="#65E080"/>
<path d="M315.634 174.477C318.729 181.935 302.365 193.836 302.365 193.836C301.991 184.226 299.148 176.824 288.654 172.984C288.654 172.984 313.743 169.92 315.634 174.477Z" fill="#65E080"/>
<ellipse rx="7.53294" ry="4.0951" transform="matrix(0.8628 -0.505546 0.50442 0.863459 212.564 182.639)" fill="#94EC8D"/>
<ellipse rx="7.53279" ry="4.09519" transform="matrix(0.871333 0.490693 -0.489581 0.871958 169.037 182.052)" fill="#94EC8D"/>
<defs>
<linearGradient id="paint0_linear_117_632" x1="150" y1="322.5" x2="228" y2="320" gradientUnits="userSpaceOnUse">
<stop offset="0.0356655" stop-color="#CA283E"/>
<stop offset="0.504333" stop-color="#EC6B7D"/>
<stop offset="0.995681" stop-color="#CA283E"/>
</linearGradient>
<radialGradient id="paint1_radial_117_632" cx="0" cy="0" r="1" gradientUnits="userSpaceOnUse" gradientTransform="translate(189.5 217.192) rotate(-90) scale(100.765 56.7397)">
<stop stop-color="#EC6B7D"/>
<stop offset="0.380208" stop-color="#E35F71"/>
<stop offset="1" stop-color="#9E0016"/>
</radialGradient>
<radialGradient id="paint2_radial_117_632" cx="0" cy="0" r="1" gradientUnits="userSpaceOnUse" gradientTransform="translate(239 160.823) rotate(-43.81) scale(90.0727 37.3045)">
<stop stop-color="#9E0016"/>
<stop offset="1" stop-color="#EC6B7D"/>
</radialGradient>
<radialGradient id="paint3_radial_117_632" cx="0" cy="0" r="1" gradientUnits="userSpaceOnUse" gradientTransform="translate(243 189.257) rotate(-6.17961) scale(64.877 21.1757)">
<stop stop-color="#9E0016"/>
<stop offset="1" stop-color="#EC6B7D"/>
</radialGradient>
<radialGradient id="paint4_radial_117_632" cx="0" cy="0" r="1" gradientUnits="userSpaceOnUse" gradientTransform="translate(144.5 164.315) rotate(-139.676) scale(87.88 35.9552)">
<stop stop-color="#9E0016"/>
<stop offset="1" stop-color="#EC6B7D"/>
</radialGradient>
<radialGradient id="paint5_radial_117_632" cx="0" cy="0" r="1" gradientUnits="userSpaceOnUse" gradientTransform="translate(138 191.252) rotate(-174.485) scale(62.2883 20.2857)">
<stop stop-color="#9E0016"/>
<stop offset="1" stop-color="#EC6B7D"/>
</radialGradient>
</defs>
</svg>
