<svg width="24" height="24" viewBox="0 0 24 24" fill="none" xmlns="http://www.w3.org/2000/svg">
<path d="M12 4.74401C12.0581 5.49176 12.0582 5.49175 12.0583 5.49174L12.0584 5.49173L12.0588 5.4917L12.0597 5.49163L12.0617 5.49147L12.0669 5.49103L12.0814 5.48971C12.0929 5.48862 12.1082 5.48707 12.1262 5.48496C12.1612 5.48087 12.2113 5.47417 12.2672 5.46376C12.32 5.45394 12.3955 5.43765 12.4751 5.41051C12.5306 5.39158 12.6957 5.33368 12.8387 5.19087C14.7629 3.26971 17.8831 3.26971 19.8073 5.19087C21.7309 7.11139 21.7309 10.2247 19.8073 12.1452L19.4986 12.4534L12 19.9402L4.19266 12.1452C2.26911 10.2247 2.26911 7.11139 4.19266 5.19088L3.66275 4.66013L4.19266 5.19088C6.11687 3.26971 9.23711 3.26971 11.1613 5.19088C11.2925 5.3218 11.4379 5.3845 11.5217 5.41458C11.6138 5.44763 11.6995 5.46481 11.7606 5.47442C11.8244 5.48444 11.8804 5.48911 11.9197 5.49142C11.94 5.4926 11.9572 5.49324 11.9707 5.49359L11.9882 5.49393L11.9948 5.49399L11.9976 5.49401L11.9988 5.49401L11.9994 5.49401L11.9997 5.49401C11.9998 5.49401 12 5.49401 12 4.74401ZM12 4.74401L12.0581 5.49176L12.0291 5.49401H12V4.74401Z" stroke="#F30021" stroke-width="1.5"/>
</svg>
