<svg width="24" height="24" viewBox="0 0 24 24" fill="none" xmlns="http://www.w3.org/2000/svg">
<path fill-rule="evenodd" clip-rule="evenodd" d="M16.7389 22C19.0602 20.3577 20.3336 19.3853 21.7811 16.1304C22.2255 14.0773 22.006 12.709 21.0054 10.2609C19.1347 10.1112 18.2852 9.67099 16.9832 8.50443C15.7161 6.72454 13.6467 5.56522 11.3088 5.56522C10.7755 5.56522 10.2563 5.62553 9.7573 5.73975L7.81798 4L2 7.91304C2.22786 9.81603 2.5146 10.8344 3.1636 12.6087C3.73222 12.8617 4.01606 13.0238 4.3698 13.3913C4.75568 16.913 7.71515 19.6522 11.3088 19.6522C12.0385 19.6522 12.7421 19.5392 13.4033 19.3297C14.5903 20.4516 15.277 21.0688 16.7389 22ZM11.3088 17.4487C8.6592 17.4487 6.5113 15.2818 6.5113 12.6087C6.5113 9.93563 8.6592 7.76869 11.3088 7.76869C13.9583 7.76869 16.1062 9.93563 16.1062 12.6087C16.1062 15.2818 13.9583 17.4487 11.3088 17.4487ZM3.93933 11.8261C3.54653 10.5981 3.35216 9.82977 3.1636 8.50443C3.97115 8.65391 4.42804 8.77323 5.2612 9.08696C4.72797 10.0169 4.39945 11.0813 4.33778 12.2174L3.93933 11.8261ZM20.2297 11.4348C19.4615 13.1354 19.0421 13.7447 18.2903 14.9565C19.3503 15.2754 19.9435 15.4455 21.0054 15.7391C21.0582 13.8603 20.978 12.8735 20.2297 11.4348Z" fill="#65E080"/>
<path d="M14 15.0042C13.3923 15.5117 12.6472 15.8418 11.852 15.9557C11.0569 16.0696 10.2445 15.9627 9.51002 15.6475C8.77556 15.3323 8.14941 14.8218 7.70488 14.1759C7.26035 13.5299 7.01585 12.7751 7 12L7.84539 12.3276C7.85628 12.8602 7.96303 13.1078 8.2685 13.5517C8.57396 13.9956 9.45623 14.5592 9.96092 14.7758C10.4656 14.9924 11.1069 14.8541 11.6534 14.7758C12.1998 14.6975 12.7159 14.3879 13.1335 14.0392L14 15.0042Z" fill="#65E080"/>
<ellipse cx="12.11" cy="10.3143" rx="0.743478" ry="0.821739" transform="rotate(30 12.11 10.3143)" fill="#65E080"/>
<ellipse cx="9.58179" cy="9.24496" rx="0.547826" ry="0.782609" transform="rotate(45 9.58179 9.24496)" fill="#65E080"/>
</svg>
