<svg width="24" height="24" viewBox="0 0 24 24" fill="none" xmlns="http://www.w3.org/2000/svg">
<mask id="path-1-inside-1_122_633" fill="white">
<path d="M3.66275 4.66013C1.44575 6.87363 1.44575 10.4624 3.66275 12.6759L12 21L12 4.74401C12 4.74401 11.7753 4.74401 11.6912 4.66013C9.47422 2.44662 5.87975 2.44662 3.66275 4.66013Z"/>
<path d="M12 21L20.0285 12.9842L20.3373 12.6759C22.5542 10.4624 22.5542 6.87363 20.3373 4.66013C18.1203 2.44662 14.5258 2.44662 12.3088 4.66013C12.2437 4.72507 12 4.74401 12 4.74401L12 21Z"/>
</mask>
<path d="M3.66275 4.66013C1.44575 6.87363 1.44575 10.4624 3.66275 12.6759L12 21L12 4.74401C12 4.74401 11.7753 4.74401 11.6912 4.66013C9.47422 2.44662 5.87975 2.44662 3.66275 4.66013Z" fill="#F30021"/>
<path d="M12 21L20.0285 12.9842L20.3373 12.6759C22.5542 10.4624 22.5542 6.87363 20.3373 4.66013C18.1203 2.44662 14.5258 2.44662 12.3088 4.66013C12.2437 4.72507 12 4.74401 12 4.74401L12 21Z" fill="white"/>
<path d="M12 21L11.4701 21.5308L12 22.0598L12.5299 21.5308L12 21ZM19.8073 12.1452L11.4701 20.4692L12.5299 21.5308L20.8672 13.2067L19.8073 12.1452ZM12.5299 20.4692L4.50142 12.4535L3.4416 13.515L11.4701 21.5308L12.5299 20.4692ZM12.75 21L12.75 4.74401L11.25 4.74401L11.25 21L12.75 21ZM3.66275 12.6759L2.60293 13.7374L2.60293 13.7374L3.66275 12.6759ZM3.66275 4.66013L4.72257 5.72163L4.72257 5.72163L3.66275 4.66013ZM11.6912 4.66013L12.7511 3.59863L12.7511 3.59863L11.6912 4.66013ZM20.0285 12.9842L18.9687 11.9226L18.9686 11.9227L20.0285 12.9842ZM12 21L10.9402 22.0615L12 23.1196L13.0598 22.0615L12 21ZM12.3088 4.66013L13.3686 5.72162L13.3686 5.72162L12.3088 4.66013ZM20.3373 4.66013L21.3971 3.59863L21.3971 3.59863L20.3373 4.66013ZM20.3373 12.6759L21.397 13.7375L21.3971 13.7374L20.3373 12.6759ZM12 4.74401L12 6.24401L12.0582 6.24401L12.1162 6.2395L12 4.74401ZM4.72257 11.6144C3.09247 9.98691 3.09248 7.34915 4.72257 5.72163L2.60293 3.59863C-0.200977 6.39811 -0.200974 10.938 2.60293 13.7374L4.72257 11.6144ZM4.72257 5.72163C6.35398 4.09279 9 4.09279 10.6314 5.72163L12.7511 3.59863C9.94845 0.800458 5.40553 0.800455 2.60293 3.59863L4.72257 5.72163ZM18.9686 11.9227L10.9402 19.9385L13.0598 22.0615L21.0883 14.0457L18.9686 11.9227ZM13.0598 19.9385L4.72257 11.6144L2.60293 13.7374L10.9402 22.0615L13.0598 19.9385ZM13.3686 5.72162C15 4.09279 17.646 4.09279 19.2774 5.72162L21.3971 3.59863C18.5945 0.800456 14.0515 0.800456 11.2489 3.59863L13.3686 5.72162ZM19.2774 5.72162C20.9075 7.34915 20.9075 9.98691 19.2774 11.6144L21.3971 13.7374C24.201 10.9379 24.201 6.39811 21.3971 3.59863L19.2774 5.72162ZM11.2489 3.59863C11.3846 3.46321 11.5151 3.38796 11.5823 3.35285C11.6562 3.31425 11.7163 3.29203 11.7491 3.28087C11.8122 3.25933 11.8536 3.25211 11.8556 3.25174C11.8606 3.2508 11.8634 3.25039 11.8639 3.25032C11.8646 3.25022 11.8648 3.25019 11.8649 3.25018C11.8651 3.25016 11.8662 3.25003 11.8689 3.24978C11.8702 3.24965 11.8721 3.24948 11.8745 3.24927C11.8757 3.24917 11.8771 3.24905 11.8786 3.24893C11.8794 3.24886 11.8802 3.2488 11.8811 3.24873C11.8815 3.24869 11.882 3.24866 11.8824 3.24862C11.8826 3.24861 11.8829 3.24859 11.8831 3.24857C11.8832 3.24856 11.8834 3.24855 11.8834 3.24854C11.8836 3.24853 11.8838 3.24851 12 4.74401C12.1162 6.2395 12.1163 6.23949 12.1165 6.23947C12.1166 6.23947 12.1168 6.23946 12.1169 6.23945C12.1171 6.23943 12.1174 6.23941 12.1176 6.23939C12.1182 6.23935 12.1187 6.2393 12.1192 6.23926C12.1203 6.23917 12.1215 6.23908 12.1227 6.23898C12.1252 6.23878 12.128 6.23855 12.131 6.23829C12.137 6.23777 12.1442 6.23713 12.1523 6.23636C12.1685 6.23482 12.1892 6.2327 12.2132 6.22989C12.2594 6.22449 12.3271 6.21549 12.4044 6.20111C12.4755 6.18788 12.5899 6.16375 12.7171 6.1204C12.7962 6.09343 13.0988 5.99099 13.3686 5.72162L11.2489 3.59863ZM12 4.74401C12 3.24401 12.0003 3.24401 12.0005 3.24401C12.0006 3.24401 12.0009 3.24401 12.0011 3.24401C12.0014 3.24401 12.0018 3.24401 12.0021 3.24401C12.0029 3.24401 12.0036 3.24401 12.0042 3.24402C12.0056 3.24402 12.007 3.24403 12.0083 3.24403C12.011 3.24405 12.0135 3.24407 12.0159 3.2441C12.0207 3.24416 12.025 3.24425 12.0291 3.24435C12.0371 3.24456 12.0443 3.24486 12.0512 3.24526C12.0628 3.24594 12.0826 3.24741 12.1101 3.25173C12.1324 3.25523 12.1957 3.26599 12.2814 3.29671C12.3504 3.32147 12.5518 3.3997 12.7511 3.59863L10.6314 5.72163C10.8727 5.9625 11.1337 6.07218 11.2685 6.12053C11.4199 6.17485 11.5552 6.20133 11.6441 6.21532C11.7383 6.23012 11.8196 6.23684 11.8759 6.24013C11.9052 6.24185 11.9306 6.24281 11.9512 6.24334C11.9616 6.24361 11.9709 6.24378 11.979 6.24388C11.9831 6.24393 11.9869 6.24396 11.9904 6.24398C11.9921 6.24399 11.9938 6.244 11.9954 6.244C11.9962 6.244 11.997 6.24401 11.9977 6.24401C11.9981 6.24401 11.9985 6.24401 11.9989 6.24401C11.9991 6.24401 11.9993 6.24401 11.9994 6.24401C11.9997 6.24401 12 6.24401 12 4.74401ZM21.0882 14.0458L21.397 13.7375L19.2775 11.6144L18.9687 11.9226L21.0882 14.0458Z" fill="#F30021" mask="url(#path-1-inside-1_122_633)"/>
</svg>
