<svg width="24" height="24" viewBox="0 0 24 24" fill="none" xmlns="http://www.w3.org/2000/svg">
<path d="M3.66275 4.66013C1.44575 6.87363 1.44575 10.4624 3.66275 12.6759L12 21L20.3373 12.6759C22.5543 10.4624 22.5543 6.87363 20.3373 4.66013C18.1203 2.44662 14.5258 2.44662 12.3088 4.66013C12.2437 4.72507 12 4.74401 12 4.74401C12 4.74401 11.7752 4.74401 11.6912 4.66013C9.47422 2.44662 5.87975 2.44662 3.66275 4.66013Z" fill="#F30021"/>
<path d="M20.0001 8.5C20.0001 6.567 18.4331 5 16.5001 5C15.5338 5 14.659 5.39158 14.0256 6.02471C14.1816 6.00838 14.3398 6 14.5001 6C16.9854 6 19.0001 8.01472 19.0001 10.5C19.0001 10.6602 18.9917 10.8185 18.9754 10.9745C19.6085 10.3411 20.0001 9.46629 20.0001 8.5Z" fill="#F93E58"/>
</svg>
