<svg width="24" height="24" viewBox="0 0 24 24" fill="none" xmlns="http://www.w3.org/2000/svg">
<path d="M10.615 3.32989C11.1274 2.09795 12.8726 2.09796 13.385 3.32989L14.8222 6.78537C15.0382 7.30472 15.5266 7.65957 16.0873 7.70452L19.8178 8.00359C21.1478 8.11022 21.687 9.76998 20.6737 10.638L17.8315 13.0727C17.4043 13.4386 17.2178 14.0127 17.3483 14.5599L18.2166 18.2002C18.5262 19.498 17.1143 20.5238 15.9757 19.8283L12.7819 17.8776C12.3019 17.5844 11.6981 17.5844 11.2181 17.8776L8.02431 19.8283C6.88566 20.5238 5.47378 19.498 5.78337 18.2002L6.65171 14.5599C6.78222 14.0127 6.59567 13.4386 6.16848 13.0727L3.32625 10.638C2.31295 9.76998 2.85224 8.11022 4.18222 8.00359L7.9127 7.70452C8.47338 7.65957 8.9618 7.30472 9.17781 6.78537L10.615 3.32989Z" fill="#FFD200"/>
<path d="M10.2406 10.8501C9.81117 10.0735 10.844 9.32309 11.4499 9.97149C11.7475 10.29 12.2527 10.29 12.5503 9.97149C13.1562 9.32309 14.189 10.0735 13.7596 10.8501C13.5486 11.2316 13.7047 11.712 14.0997 11.8967C14.9036 12.2726 14.5091 13.4867 13.6378 13.3183C13.2097 13.2355 12.801 13.5324 12.7475 13.9651C12.6384 14.8458 11.3618 14.8458 11.2527 13.9651C11.1992 13.5324 10.7905 13.2355 10.3624 13.3183C9.49113 13.4867 9.09664 12.2726 9.90054 11.8967C10.2955 11.712 10.4516 11.2316 10.2406 10.8501Z" fill="#BFA630"/>
</svg>
