<svg width="24" height="24" viewBox="0 0 24 24" fill="none" xmlns="http://www.w3.org/2000/svg">
<path fill-rule="evenodd" clip-rule="evenodd" d="M5 6C5 4.89543 5.89543 4 7 4H14.1716C14.702 4 15.2107 4.21071 15.5858 4.58579L18.4142 7.41421C18.7893 7.78929 19 8.29799 19 8.82843V18C19 19.1046 18.1046 20 17 20H7C5.89543 20 5 19.1046 5 18V6ZM8 7C7.44772 7 7 7.44772 7 8C7 8.55228 7.44772 9 8 9H14C14.5523 9 15 8.55228 15 8C15 7.44772 14.5523 7 14 7H8ZM8 13C7.44772 13 7 12.5523 7 12C7 11.4477 7.44772 11 8 11H16C16.5523 11 17 11.4477 17 12C17 12.5523 16.5523 13 16 13H8Z" fill="#FFD200"/>
</svg>
