<svg width="24" height="24" viewBox="0 0 24 24" fill="none" xmlns="http://www.w3.org/2000/svg">
<path d="M18.184 19.0001C18.6589 19.0001 19.0684 18.666 19.1636 18.2006L21.2326 8.09242C21.4391 7.08365 20.1702 6.45893 19.4966 7.23773L16.9458 10.187C16.5659 10.6262 15.893 10.6506 15.4823 10.2399L12.707 7.46458C12.3164 7.07406 11.6833 7.07406 11.2927 7.46458L8.51741 10.2399C8.10676 10.6506 7.43384 10.6262 7.05394 10.187L4.50348 7.23795C3.82991 6.45912 2.56095 7.08383 2.76743 8.09262L4.83636 18.2006C4.93161 18.666 5.34106 19.0001 5.81605 19.0001H18.184Z" fill="#FFD200"/>
<path d="M11.104 12.8309C11.4699 12.0846 12.5337 12.0846 12.8997 12.8309L13.2754 13.5971L13.7394 14.3267C14.18 15.0194 13.6444 15.9185 12.8255 15.8609L12.0018 15.803L11.1782 15.8609C10.3593 15.9185 9.82366 15.0194 10.2642 14.3267L10.7282 13.5971L11.104 12.8309Z" fill="#BFA630"/>
<path d="M12.0018 15.803L10.7282 13.5971L13.2754 13.5971L12.0018 15.803Z" fill="#BFA630"/>
</svg>
